<?xml version="1.0" encoding="UTF-8" standalone="no"?>
<!DOCTYPE svg PUBLIC "-//W3C//DTD SVG 1.1//EN" "http://www.w3.org/Graphics/SVG/1.1/DTD/svg11.dtd">
<svg version="1.1" xmlns="http://www.w3.org/2000/svg" xmlns:xlink="http://www.w3.org/1999/xlink" preserveAspectRatio="xMidYMid meet" viewBox="0 0 640 640" width="640" height="640"><defs><path d="M458.12 273.58C427.1 258.77 400.08 236.74 379.33 209.34C372.28 199.81 364.28 191.02 355.45 183.11C346.15 172.95 332.56 167.85 318.87 169.38C317.37 169.59 305.32 171.31 303.81 171.53C278.92 176.86 253.06 168.59 235.88 149.8C202.97 115.32 177.76 74.25 161.9 29.31C159.67 21.21 156.21 13.5 151.65 6.46C148.75 1.5 143.04 -1.09 137.41 0C131.65 0.9 127.09 5.34 126.03 11.07C123.59 19.44 122.62 28.18 123.16 36.89C127.22 87.55 144.93 136.17 174.4 177.57C182.38 189.07 185.71 203.17 183.72 217.02C182.34 232.91 182.34 248.88 183.72 264.77C186.26 293.61 191.03 322.22 197.96 350.33C199.3 355.45 198.6 360.88 196.02 365.49C184.64 384.96 174.4 405.05 162.51 423.9C150.36 443.61 145.77 467.05 149.6 489.89C153.39 522.06 157.8 554.03 162.31 586C163.44 599.97 166.33 613.74 170.91 626.99C172.86 634.53 179.62 639.82 187.41 639.9C195.17 639.35 201.68 633.84 203.5 626.27C205.69 620.62 207.04 614.68 207.49 608.65C209.54 578.83 211.69 549.01 213.23 519.09C214.56 493.17 219.89 468.98 239.87 450.23C246.43 444.09 246.33 443.68 251.76 450.23C263.34 465.09 275.73 479.23 288.65 492.96C327.89 533.95 377.28 560.79 427.49 586C436.4 590.85 445.77 594.8 455.46 597.78C464.58 600.14 471.85 598.4 475.13 593.17C477.91 586.58 476.5 578.97 471.55 573.81C464.84 565.58 457.16 558.18 448.7 551.78C425.37 533.38 403.64 513.06 383.73 491.02C356.46 456.6 331.05 420.76 307.6 383.63C305.34 380.71 304.83 376.79 306.27 373.38C308.81 365.28 310.22 356.87 310.47 348.38C311.6 328.9 311.6 309.36 310.47 289.88C309.32 278.5 310.58 267.02 314.16 256.16C318.87 244.48 321.64 243.56 330.55 252.07C357.2 277.07 388.99 295.95 423.7 307.4C446.65 315.72 470.47 321.42 494.7 324.41C506.69 325.74 513.97 321.84 516.22 314.16C518.48 306.47 514.79 301.04 503.11 295.31C488.15 288.03 472.98 281.06 458.12 273.58ZM417.24 553.31C419.36 554.43 420.89 556.41 421.44 558.74C408.02 551.37 395.52 544.3 382.81 537.53C337.27 511.23 297.7 475.75 266.62 433.33C263.23 428.92 263.03 426.46 267.33 423.08C273.91 417.08 280.04 410.61 285.67 403.71C289.67 398.9 291.41 399.72 294.59 404.33C310.16 427.9 326.76 451.67 343.57 475.24C364.68 504.31 389.44 530.55 417.24 553.31ZM342.03 232.6C325.33 217.33 311.29 219.07 298.99 237.93C292.6 247.96 289.06 259.54 288.75 271.43C287.83 283.95 287.83 296.52 288.75 309.04C289.84 324.69 289.4 340.4 287.42 355.97C285.45 366.76 280.19 376.67 272.35 384.35C262.11 396.03 251.14 406.79 240.38 417.85C231.88 426.67 223.78 435.99 215.38 445.01C201.02 461.8 192.95 483.06 192.53 505.16C190.48 534.46 188.5 563.8 186.59 593.17C185.91 593.17 185.54 593.17 185.46 593.17C183.41 578.21 181.06 563.25 179.31 548.19C176.24 522.16 171.42 496.24 170.91 469.8C170.61 459.89 173.09 450.09 178.09 441.52C190.07 421.03 201.65 399.92 213.54 379.23C220.36 368.94 222.52 356.25 219.48 344.28C212.41 318.28 207.61 291.71 205.14 264.87C203.75 249.23 203.75 233.49 205.14 217.84C207.85 199.57 203.4 180.97 192.74 165.89C169.62 133.88 154.58 96.76 148.88 57.69C152.67 65.58 156.26 73.47 160.15 81.36C178.3 117.74 203.4 150.22 234.03 176.96C246.5 188.72 263.11 195.09 280.24 194.68C293.27 194.63 306.28 193.71 319.18 191.92C325.42 190.65 331.89 192.35 336.7 196.53C345 203.31 352.43 211.09 358.83 219.69C378.41 246.51 403.63 268.72 432.71 284.75C433.69 285.33 434.47 286.19 434.97 287.21C411.94 280.35 390.15 269.87 370.41 256.16C360.5 248.88 351.02 241.01 342.03 232.6Z" id="aYyINiPr8"></path><path d="M302.58 146.01C307.21 141.11 311.21 135.63 314.47 129.72C324.51 114.81 329.73 97.18 329.43 79.21C329.75 61.76 318.72 46.12 302.17 40.58C284.87 35.49 266.28 42.31 256.37 57.38C245.52 73.27 239.67 92.04 239.56 111.28C239.02 115.79 239.26 120.37 240.28 124.8C241.65 139.48 251.72 151.89 265.8 156.26C279 160.67 293.56 156.61 302.58 146.01ZM294.79 61.48C303.54 64.21 308.98 72.92 307.6 81.97C306.96 100.49 299.17 118.04 285.88 130.95C278.4 139.05 269.48 137.1 264.57 127.06C262.72 122.08 261.99 116.77 262.41 111.48C262 97.67 265.71 84.04 273.07 72.34C277.16 64.36 285.96 59.96 294.79 61.48Z" id="h5cgJ0tDhx"></path></defs><g><g><g><use xlink:href="#aYyINiPr8" opacity="1" fill="#d5d5d5" fill-opacity="1"></use><g><use xlink:href="#aYyINiPr8" opacity="1" fill-opacity="0" stroke="#000000" stroke-width="1" stroke-opacity="0"></use></g></g><g><use xlink:href="#h5cgJ0tDhx" opacity="1" fill="#d5d5d5" fill-opacity="1"></use><g><use xlink:href="#h5cgJ0tDhx" opacity="1" fill-opacity="0" stroke="#000000" stroke-width="1" stroke-opacity="0"></use></g></g></g></g></svg>