<svg xmlns="http://www.w3.org/2000/svg" viewBox="0 0 43.97 50.14"><defs><style>.cls-1{fill:#f77b65;}</style></defs><title>nutricion</title><g id="Capa_2" data-name="Capa 2"><g id="Capa_1-2" data-name="Capa 1"><path class="cls-1" d="M43.12,20.83a11.5,11.5,0,0,0-8.51-8.35c-4-1-8.21-.05-10.5,2.38a3.23,3.23,0,0,1-.45.38l-.44.31.05-.54A10.61,10.61,0,0,1,33.85,5.43a1.23,1.23,0,1,0,0-2.46A13,13,0,0,0,23.44,8.13l-.33.43L23,8a10.19,10.19,0,0,0-9.92-8H7.15A1.24,1.24,0,0,0,5.91,1.23,10.15,10.15,0,0,0,16.05,11.37h5.57l-.12.33a12.79,12.79,0,0,0-.71,3.41l0,.42-.36-.23a3.34,3.34,0,0,1-.54-.44A10.61,10.61,0,0,0,9.59,12.25,11.74,11.74,0,0,0,1,20.47,28.41,28.41,0,0,0,.44,32.84a28.63,28.63,0,0,0,5,12C8,48.26,11,50.14,14,50.14a7,7,0,0,0,3.36-.86,9.7,9.7,0,0,1,9.31,0,7,7,0,0,0,3.36.86c3,0,6-1.88,8.56-5.31a28.68,28.68,0,0,0,5-12A28.72,28.72,0,0,0,43.12,20.83ZM16.05,8.9A7.69,7.69,0,0,1,8.54,2.77l-.06-.3h4.6A7.7,7.7,0,0,1,20.6,8.6l.06.3ZM30,47.67a4.4,4.4,0,0,1-2.18-.56,12.39,12.39,0,0,0-11.67,0,4.43,4.43,0,0,1-2.18.56c-2.13,0-4.53-1.57-6.58-4.32A26.11,26.11,0,0,1,2.87,32.41a26.29,26.29,0,0,1,.46-11.26,9.18,9.18,0,0,1,6.84-6.5,8.27,8.27,0,0,1,7.9,1.9,5.38,5.38,0,0,0,7.83,0c1.67-1.77,5-2.46,8.1-1.68a9,9,0,0,1,6.74,6.6,26.67,26.67,0,0,1,.36,10.94,26.11,26.11,0,0,1-4.52,10.94C34.53,46.1,32.13,47.67,30,47.67Z"/></g></g></svg>