<svg xmlns="http://www.w3.org/2000/svg" viewBox="0 0 69.31 43.94"><defs><style>.cls-1{fill:#f77b65;fill-rule:evenodd;}</style></defs><title>yoga</title><g id="Capa_2" data-name="Capa 2"><g id="Capa_1-2" data-name="Capa 1"><path class="cls-1" d="M59.51,0h0a8.26,8.26,0,0,0-7.38,4.13l-.16.21c-.11.13-.22.28-.34.4l-.11.12L34.81,4.78a1.47,1.47,0,0,0-1.26.52L.43,41.75A1.5,1.5,0,0,0,.1,43.29a1.34,1.34,0,0,0,1.29.65H43.18a20.69,20.69,0,0,0,12.44-4.33,16.55,16.55,0,0,0,4.8-6,14.11,14.11,0,0,0,.73-1.84l8-22.33a2.82,2.82,0,0,0,.15-1C69,3.21,64,0,59.51,0Zm-.39,30.23,0,.15a12.43,12.43,0,0,1-.77,2.16,13.91,13.91,0,0,1-4.18,5.16,19.43,19.43,0,0,1-11,3.82H3.89L35.09,7.21l14.38,0L40.85,17.52A9.94,9.94,0,0,0,39,25.23c1.24,5.48,4,7.93,9,7.93h.12a7.26,7.26,0,0,0,7-7.42v-.11a7.64,7.64,0,0,0-2.37-5.39,4.91,4.91,0,0,0-4.33-1,4.74,4.74,0,0,0-3.29,2.64,4.92,4.92,0,0,0,.64,4.74A1.18,1.18,0,0,0,48,26.22a1.17,1.17,0,0,0-.25-.94,2.28,2.28,0,0,1-.42-2.43A2.46,2.46,0,0,1,49,21.57a2.43,2.43,0,0,1,2.21.52,5.26,5.26,0,0,1,1.5,3.73A4.65,4.65,0,0,1,48,30.76c-3.15.15-5.63-2.07-6.63-6a8.13,8.13,0,0,1,1.82-6.24,9.9,9.9,0,0,1,6.22-2.85,9,9,0,0,1,6.69,2c2.12,1.76,3.3,4.49,3.53,8.09A16.67,16.67,0,0,1,59.12,30.23ZM66.89,8.55,61.71,23l-.32-1.11a12.09,12.09,0,0,0-3.75-6,11.31,11.31,0,0,0-7.34-2.56,10.31,10.31,0,0,0-1.11,0c-.2,0-.4.05-.6.08l-1.22.18.64-.76,1.84-2.18c1.47-1.72,3-3.51,4.34-5.24a6,6,0,0,1,5.49-3c3.28,0,7,2.41,7.21,6.13Z"/></g></g></svg>