<svg xmlns="http://www.w3.org/2000/svg" viewBox="0 0 38.42 62.46"><defs><style>.cls-1{fill:#f77b65;}</style></defs><title>baile</title><g id="Capa_2" data-name="Capa 2"><g id="Capa_1-2" data-name="Capa 1"><path class="cls-1" d="M37.08,28.82c-1.46-.71-2.94-1.39-4.39-2.12A21,21,0,0,1,25,20.43a17.11,17.11,0,0,0-2.33-2.56,4.21,4.21,0,0,0-3.57-1.34l-1.47.21A7,7,0,0,1,11,14.62,32.89,32.89,0,0,1,3.78,2.86a8,8,0,0,0-1-2.23A1.32,1.32,0,0,0,1.39,0,1.34,1.34,0,0,0,.28,1.08,7.37,7.37,0,0,0,0,3.6,27.46,27.46,0,0,0,5,17.33a5.4,5.4,0,0,1,.91,3.85,26.86,26.86,0,0,0,0,4.66A55,55,0,0,0,7.3,34.19a2,2,0,0,1-.19,1.48C6,37.57,5,39.53,3.84,41.37a9.33,9.33,0,0,0-1.26,6.44c.37,3.14.8,6.26,1.24,9.38a16.28,16.28,0,0,0,.84,4,1.68,1.68,0,0,0,1.61,1.26,1.74,1.74,0,0,0,1.57-1.33,6,6,0,0,0,.39-1.72c.2-2.91.41-5.82.56-8.74.13-2.53.65-4.89,2.6-6.72.64-.6.63-.64,1.16,0,1.13,1.45,2.34,2.83,3.6,4.17,3.83,4,8.65,6.62,13.55,9.08a14.89,14.89,0,0,0,2.73,1.15c.89.23,1.6.06,1.92-.45A1.75,1.75,0,0,0,34,56a13,13,0,0,0-2.23-2.15,51.58,51.58,0,0,1-6.34-5.93A120.39,120.39,0,0,1,18,37.44a1,1,0,0,1-.13-1A9.06,9.06,0,0,0,18.28,34a49.44,49.44,0,0,0,0-5.71A7.94,7.94,0,0,1,18.64,25c.46-1.14.73-1.23,1.6-.4A24.5,24.5,0,0,0,29.33,30a31.68,31.68,0,0,0,6.93,1.66c1.17.13,1.88-.25,2.1-1S38.22,29.38,37.08,28.82ZM21.51,46.38A41,41,0,0,0,28.7,54a.81.81,0,0,1,.41.53c-1.31-.72-2.53-1.41-3.77-2.07A37,37,0,0,1,14,42.29c-.33-.43-.35-.67.07-1a17.78,17.78,0,0,0,1.79-1.89c.39-.47.56-.39.87.06C18.25,41.76,19.87,44.08,21.51,46.38ZM24.13,25a30.43,30.43,0,0,1-2.77-2.3c-1.63-1.49-3-1.32-4.2.52a6.39,6.39,0,0,0-1,3.27,25,25,0,0,0,0,3.67,23.37,23.37,0,0,1-.13,4.58,5.18,5.18,0,0,1-1.47,2.77c-1,1.14-2.07,2.19-3.12,3.27-.83.86-1.62,1.77-2.44,2.65A9.3,9.3,0,0,0,6.77,49.3q-.3,4.29-.58,8.59l-.11,0c-.2-1.46-.43-2.92-.6-4.39-.3-2.54-.77-5.07-.82-7.65a5.17,5.17,0,0,1,.7-2.76c1.17-2,2.3-4.06,3.46-6.08a4.27,4.27,0,0,0,.58-3.41A45.45,45.45,0,0,1,8,25.85a26.06,26.06,0,0,1,0-4.59,7,7,0,0,0-1.21-5.07A23.94,23.94,0,0,1,2.51,5.63c.37.77.72,1.54,1.1,2.31a30.38,30.38,0,0,0,7.21,9.33A6.35,6.35,0,0,0,15.33,19a28.44,28.44,0,0,0,3.8-.27,2,2,0,0,1,1.71.45A12.76,12.76,0,0,1,23,21.44a22.19,22.19,0,0,0,7.21,6.35.57.57,0,0,1,.22.24A22.12,22.12,0,0,1,24.13,25Z"/><path class="cls-1" d="M13.92,15.25a3.33,3.33,0,0,0,3.59-1,7.8,7.8,0,0,0,1.16-1.59,8.56,8.56,0,0,0,1.46-4.93,3.9,3.9,0,0,0-2.66-3.77A4,4,0,0,0,13,5.6a9.42,9.42,0,0,0-1.64,5.26,3.83,3.83,0,0,0,.07,1.32A3.56,3.56,0,0,0,13.92,15.25Zm.71-8.19A2,2,0,0,1,16.75,6,1.81,1.81,0,0,1,18,8a7,7,0,0,1-2.12,4.78c-.73.79-1.6.6-2.08-.38a3.55,3.55,0,0,1-.21-1.52A6.79,6.79,0,0,1,14.63,7.06Z"/></g></g></svg>