<?xml version="1.0" encoding="UTF-8" standalone="no"?>
<!DOCTYPE svg PUBLIC "-//W3C//DTD SVG 1.1//EN" "http://www.w3.org/Graphics/SVG/1.1/DTD/svg11.dtd">
<svg version="1.1" xmlns="http://www.w3.org/2000/svg" xmlns:xlink="http://www.w3.org/1999/xlink" preserveAspectRatio="xMidYMid meet" viewBox="0 0 640 640" width="640" height="640"><defs><path d="M458.19 273.69C427.17 258.87 400.15 236.84 379.39 209.44C372.34 199.91 364.34 191.12 355.52 183.21C346.22 173.06 332.63 167.95 318.94 169.48C317.43 169.69 305.38 171.41 303.88 171.63C278.98 176.96 253.13 168.69 235.94 149.91C203.04 115.42 177.82 74.35 161.96 29.41C159.74 21.31 156.28 13.6 151.72 6.56C148.82 1.6 143.11 -0.99 137.47 0.1C131.72 1.01 127.16 5.44 126.1 11.17C123.66 19.55 122.69 28.28 123.23 36.99C127.29 87.65 144.99 136.27 174.46 177.68C182.45 189.17 185.78 203.27 183.79 217.12C182.4 233.01 182.4 248.99 183.79 264.87C186.33 293.72 191.09 322.32 198.03 350.43C199.36 355.55 198.66 360.98 196.08 365.6C184.71 385.07 174.46 405.15 162.58 424C150.42 443.71 145.84 467.16 149.67 489.99C153.46 522.16 157.86 554.13 162.37 586.1C163.51 600.07 166.4 613.84 170.98 627.09C172.93 634.63 179.69 639.92 187.48 640C195.24 639.45 201.75 633.94 203.56 626.37C205.76 620.73 207.1 614.79 207.56 608.75C209.61 578.93 211.76 549.11 213.3 519.19C214.63 493.27 219.96 469.09 239.94 450.34C246.5 444.19 246.39 443.78 251.82 450.34C263.4 465.19 275.8 479.33 288.71 493.06C327.96 534.05 377.34 560.9 427.55 586.1C436.46 590.95 445.83 594.9 455.53 597.89C464.65 600.24 471.92 598.5 475.2 593.28C477.97 586.68 476.56 579.07 471.61 573.91C464.9 565.68 457.23 558.29 448.76 551.88C425.44 533.49 403.71 513.16 383.8 491.12C356.53 456.7 331.12 420.86 307.67 383.73C305.41 380.81 304.9 376.89 306.34 373.49C308.87 365.38 310.29 356.97 310.54 348.49C311.66 329 311.66 309.46 310.54 289.98C309.39 278.61 310.64 267.12 314.23 256.27C318.94 244.59 321.71 243.66 330.62 252.17C357.27 277.17 389.06 296.05 423.76 307.5C446.72 315.82 470.54 321.53 494.77 324.51C506.76 325.84 514.03 321.95 516.29 314.26C518.54 306.58 514.85 301.15 503.17 295.41C488.21 288.13 473.05 281.17 458.19 273.69ZM417.31 553.42C419.42 554.54 420.96 556.52 421.51 558.85C408.08 551.47 395.58 544.4 382.88 537.64C337.34 511.34 297.77 475.85 266.68 433.43C263.3 429.02 263.1 426.56 267.4 423.18C273.98 417.18 280.11 410.71 285.74 403.82C289.74 399 291.48 399.82 294.66 404.43C310.23 428 326.83 451.77 343.63 475.34C364.75 504.41 389.51 530.65 417.31 553.42ZM342.1 232.7C325.39 217.43 311.36 219.17 299.06 238.03C292.67 248.06 289.12 259.64 288.81 271.53C287.89 284.05 287.89 296.62 288.81 309.14C289.91 324.79 289.46 340.51 287.48 356.07C285.51 366.86 280.25 376.77 272.42 384.45C262.17 396.13 251.21 406.89 240.45 417.96C231.95 426.77 223.85 436.09 215.45 445.11C201.09 461.9 193.01 483.17 192.6 505.26C190.55 534.56 188.57 563.9 186.66 593.28C185.98 593.28 185.6 593.28 185.53 593.28C183.48 578.32 181.12 563.36 179.38 548.29C176.31 522.27 171.49 496.34 170.98 469.91C170.68 459.99 173.16 450.2 178.15 441.63C190.14 421.13 201.72 400.03 213.6 379.33C220.43 369.04 222.58 356.35 219.55 344.39C212.48 318.38 207.68 291.81 205.2 264.98C203.82 249.33 203.82 233.59 205.2 217.94C207.91 199.68 203.47 181.07 192.8 165.99C169.69 133.98 154.65 96.86 148.95 57.79C152.74 65.68 156.33 73.57 160.22 81.46C178.37 117.85 203.46 150.32 234.1 177.06C246.57 188.83 263.17 195.2 280.31 194.79C293.34 194.74 306.34 193.81 319.25 192.02C325.49 190.75 331.96 192.46 336.77 196.63C345.07 203.41 352.5 211.19 358.9 219.79C378.48 246.61 403.7 268.82 432.78 284.85C433.75 285.44 434.54 286.29 435.03 287.31C412.01 280.45 390.22 269.97 370.48 256.27C360.56 248.98 351.08 241.11 342.1 232.7Z" id="j2vMwryhlJ"></path><path d="M302.58 146.01C307.21 141.11 311.21 135.63 314.47 129.72C324.51 114.81 329.73 97.18 329.43 79.21C329.75 61.76 318.72 46.12 302.17 40.58C284.87 35.49 266.28 42.31 256.37 57.38C245.52 73.27 239.67 92.04 239.56 111.28C239.02 115.79 239.26 120.37 240.28 124.8C241.65 139.48 251.72 151.89 265.8 156.26C279 160.67 293.56 156.61 302.58 146.01ZM294.79 61.48C303.54 64.21 308.98 72.92 307.6 81.97C306.96 100.49 299.17 118.04 285.88 130.95C278.4 139.05 269.48 137.1 264.57 127.06C262.72 122.08 261.99 116.77 262.41 111.48C262 97.67 265.71 84.04 273.07 72.34C277.16 64.36 285.96 59.96 294.79 61.48Z" id="a2AR5Vqy7d"></path></defs><g><g><g><use xlink:href="#j2vMwryhlJ" opacity="1" fill="#ffffff" fill-opacity="1"></use><g><use xlink:href="#j2vMwryhlJ" opacity="1" fill-opacity="0" stroke="#000000" stroke-width="1" stroke-opacity="0"></use></g></g><g><use xlink:href="#a2AR5Vqy7d" opacity="1" fill="#ffffff" fill-opacity="1"></use><g><use xlink:href="#a2AR5Vqy7d" opacity="1" fill-opacity="0" stroke="#000000" stroke-width="1" stroke-opacity="0"></use></g></g></g></g></svg>