<svg xmlns="http://www.w3.org/2000/svg" viewBox="0 0 35.8 47.22"><defs><style>.cls-1{fill:#f77b65;}</style></defs><title>box</title><g id="Capa_2" data-name="Capa 2"><g id="Capa_1-2" data-name="Capa 1"><path class="cls-1" d="M8.05,47.22H28.57A1.27,1.27,0,0,0,29.84,46V33.88l0-.05a13.33,13.33,0,0,0,4-4.75,17.25,17.25,0,0,0,1.63-4.94,20.19,20.19,0,0,0,.25-2.27V10.15A10.16,10.16,0,0,0,25.66,0h-13A10.16,10.16,0,0,0,2.54,10.15v.06a10.18,10.18,0,0,0,4.35,8.33l.07.05,0,.18h-.1a7.41,7.41,0,0,0-6.3,5,8.27,8.27,0,0,0-.36,4.48,7.9,7.9,0,0,0,2.33,4.2A15.5,15.5,0,0,0,6.7,35.26l.07,0V46A1.27,1.27,0,0,0,8.05,47.22ZM19,39.1h-.82a1.29,1.29,0,0,0-1.3,1.2,1.25,1.25,0,0,0,.34.94,1.29,1.29,0,0,0,.92.39H19v3H9.31V36.27l.1-.08.07,0a14.85,14.85,0,0,0,3.33.38H19V39.1Zm8.35,5.59H21.5v-3H22a1.31,1.31,0,0,0,1.31-1.21A1.27,1.27,0,0,0,23,39.5a1.24,1.24,0,0,0-.92-.4H21.5V36.56h.13a17.18,17.18,0,0,0,5.51-1.19l.05,0,.13.06v9.29ZM5.07,10.21v-.06a7.63,7.63,0,0,1,7.61-7.62h13a7.62,7.62,0,0,1,7.61,7.62v.06a7.61,7.61,0,0,1-7.61,7.61h-13A7.62,7.62,0,0,1,5.07,10.21ZM4.23,30.6a5.49,5.49,0,0,1-1.34-6,4.91,4.91,0,0,1,4.28-3.35H14.1a2.82,2.82,0,0,1,0,5.64h-3a1.3,1.3,0,0,0-1.31,1.21,1.23,1.23,0,0,0,.35.93,1.26,1.26,0,0,0,.91.39h3a5.35,5.35,0,0,0,4-8.89L18,20.5l.08-.14h7.54A10,10,0,0,0,33,17.18l.06-.06.17.06V21.9a13.87,13.87,0,0,1-3.57,8.79c-2.22,2.23-5.37,3.37-9.36,3.37H12.81A12.51,12.51,0,0,1,4.23,30.6Z"/></g></g></svg>