<?xml version="1.0" encoding="UTF-8" standalone="no"?>
<!DOCTYPE svg PUBLIC "-//W3C//DTD SVG 1.1//EN" "http://www.w3.org/Graphics/SVG/1.1/DTD/svg11.dtd">
<svg version="1.1" xmlns="http://www.w3.org/2000/svg" xmlns:xlink="http://www.w3.org/1999/xlink" preserveAspectRatio="xMidYMid meet" viewBox="0 0 640 640" width="640" height="640"><defs><path d="M464.62 640C473.86 640.01 481.47 632.71 481.83 623.46C481.83 612.51 481.83 557.76 481.83 459.2C481.83 458.79 481.83 458.56 481.83 458.52C504.72 441.63 523.29 419.57 536.04 394.14C546.75 373.06 554.2 350.49 558.14 327.18C559.85 317 560.98 306.73 561.52 296.42C561.52 280.53 561.52 153.45 561.52 137.57C561.45 62.1 500.65 0.74 425.18 0C407.56 0 266.6 0 248.98 0C173.19 0.3 111.89 61.78 111.82 137.57C111.82 137.65 111.82 138.3 111.82 138.38C111.88 183.38 133.89 225.51 170.78 251.28C170.84 251.33 171.15 251.55 171.72 251.96L171.72 254.4C170.91 254.4 170.46 254.4 170.37 254.4C131.06 258.23 97.64 284.75 84.98 322.17C77.78 341.57 76.09 362.59 80.1 382.89C84.47 404.68 95.5 424.58 111.68 439.81C128.32 455.5 147.41 468.36 168.2 477.9C168.26 477.9 168.58 477.9 169.15 477.9C169.15 565.24 169.15 613.76 169.15 623.46C169.51 632.76 177.2 640.08 186.5 640C242.12 640 436.8 640 464.62 640ZM323.8 529.94C314.54 529.85 306.82 536.98 306.18 546.21C305.87 550.91 307.54 555.53 310.78 558.95C314.06 562.32 318.56 564.22 323.25 564.24C324.03 564.24 327.92 564.24 334.91 564.24L334.91 604.9L203.57 604.9L203.57 491.59L204.93 490.5C205.5 490.5 205.82 490.5 205.88 490.5C220.68 493.92 235.82 495.65 251.01 495.65C256.61 495.65 284.57 495.65 334.91 495.65L334.91 529.94C328.24 529.94 324.54 529.94 323.8 529.94ZM448.08 605.71L368.79 605.71L368.79 565.05C372.86 565.05 375.12 565.05 375.57 565.05C384.87 565.08 392.61 557.92 393.32 548.65C393.86 543.83 392.33 539 389.12 535.37C385.92 531.88 381.39 529.92 376.65 529.94C376.13 529.94 373.51 529.94 368.79 529.94L368.79 495.52C369.85 495.52 370.44 495.52 370.55 495.52C396.17 494.29 421.4 488.84 445.24 479.39C445.28 479.39 445.51 479.39 445.91 479.39L447.67 480.2L447.67 606.12L448.08 605.71ZM146.11 137.57C146.18 80.61 192.3 34.44 249.25 34.29C266.87 34.29 407.83 34.29 425.45 34.29C482.43 34.37 528.59 80.58 528.59 137.57C528.59 137.65 528.59 138.3 528.59 138.38C528.59 195.35 482.41 241.52 425.45 241.52C407.83 241.52 266.87 241.52 249.25 241.52C192.32 241.45 146.18 195.32 146.11 138.38C146.11 138.22 146.11 137.65 146.11 137.57ZM116.56 333.42C124.99 307.99 147.86 290.09 174.57 288.01C183.96 288.01 259.1 288.01 268.5 288.01C289.61 288.01 306.72 305.13 306.72 326.23C306.72 347.34 289.61 364.46 268.5 364.46C264.43 364.46 231.9 364.46 227.84 364.46C218.51 364.36 210.73 371.55 210.08 380.86C209.82 385.54 211.54 390.11 214.82 393.46C218.04 396.83 222.5 398.74 227.16 398.75C231.22 398.75 263.75 398.75 267.82 398.75C307.87 398.66 340.26 366.13 340.18 326.08C340.14 308.46 333.69 291.46 322.03 278.25C321.99 278.23 321.76 278.09 321.36 277.85L322.44 275.95C383.76 275.95 417.82 275.95 424.63 275.95C462.54 276.2 498.81 260.57 524.66 232.85C524.71 232.8 524.98 232.53 525.47 232.04L527.78 232.85C527.78 271.23 527.78 292.56 527.78 296.82C526.15 340.99 509.02 383.17 479.39 415.96C449.3 446.18 406.61 461.63 352.53 461.63C342.38 461.63 261.16 461.63 251.01 461.63C207.68 461.44 166.07 444.66 134.72 414.74C112.64 393.88 105.45 361.69 116.56 333.42Z" id="a6uhlKpIL"></path></defs><g><g><g><use xlink:href="#a6uhlKpIL" opacity="1" fill="#d5d5d5" fill-opacity="1"></use><g><use xlink:href="#a6uhlKpIL" opacity="1" fill-opacity="0" stroke="#000000" stroke-width="1" stroke-opacity="0"></use></g></g></g></g></svg>