<svg xmlns="http://www.w3.org/2000/svg" viewBox="0 0 35.29 52.93"><defs><style>.cls-1{fill:#f77b65;}</style></defs><title>calistenia</title><g id="Capa_2" data-name="Capa 2"><g id="Capa_1-2" data-name="Capa 1"><path class="cls-1" d="M17.64,0A16.76,16.76,0,0,0,.88,16.76V35.29H0V52.93H7.06V35.29H6.18V28.76a16.34,16.34,0,0,0,22.93.18v6.35h-.88V52.93h7.06V35.29h-.88V17.64h-.09c0-.26.09-.61.09-.88A16.76,16.76,0,0,0,17.64,0ZM5.29,51.17H1.76V40.58H5.29ZM1.76,38.82V37.05H5.29v1.77Zm15.88-7.06A15,15,0,0,1,6.18,26.11V23.29a4,4,0,0,1,.44.8l.09.08a4.72,4.72,0,0,0,.61.8c.09.09.09.17.18.17l.79.8.09.09c.27.26.53.44.8.7.08.09.17.09.17.18.27.26.62.44.88.7a.09.09,0,0,1,.09.09c.27.18.62.36.88.53.09.09.18.09.27.18l1.06.53h.09a5.39,5.39,0,0,0,1.05.35c.09,0,.18.09.27.09.35.09.71.18,1.15.26h0c.35.09.7.09,1.14.18h.27c.44,0,.79.09,1.23.09A13.19,13.19,0,1,0,4.41,16.76V35.29H2.65V16.76a15,15,0,1,1,30,0,7,7,0,0,1-.09,1.41v.27a5.16,5.16,0,0,1-.17,1.15c0,.17-.09.35-.09.53s-.09.52-.18.7-.08.35-.17.53a7.11,7.11,0,0,1-.44,1.15c0,.09-.09.17-.18.26-.18.27-.26.62-.44.88a.68.68,0,0,0-.18.36l-.53.79c-.09.09-.09.18-.17.27A14.7,14.7,0,0,1,17.64,31.76Zm-11.46-15A11.47,11.47,0,1,1,17.64,28.23,11.44,11.44,0,0,1,6.18,16.76ZM33.53,51.17H30V40.58h3.53ZM30,38.82V37.05h3.53v1.77Zm2.64-14.56v11H30.88V27.08a1.87,1.87,0,0,1,.35-.44c.18-.26.35-.44.53-.7a4.15,4.15,0,0,0,.44-.71c.18-.26.27-.53.44-.79C32.55,24.35,32.64,24.35,32.64,24.26Z"/></g></g></svg>