<?xml version="1.0" encoding="UTF-8" standalone="no"?>
<!DOCTYPE svg PUBLIC "-//W3C//DTD SVG 1.1//EN" "http://www.w3.org/Graphics/SVG/1.1/DTD/svg11.dtd">
<svg version="1.1" xmlns="http://www.w3.org/2000/svg" xmlns:xlink="http://www.w3.org/1999/xlink" preserveAspectRatio="xMidYMid meet" viewBox="0 0 640 640" width="640" height="640"><defs><path d="M69.26 488.95C69.69 413.36 126.28 349.9 201.32 340.83C207.17 340.24 212.46 344.32 213.39 350.12C214.1 356.08 209.84 361.49 203.88 362.19C203.87 362.19 203.86 362.19 203.86 362.2C133.18 370.4 82.54 434.34 90.74 505.01C98.95 575.68 162.88 626.32 233.56 618.12C304.23 609.92 354.87 545.98 346.67 475.31C339.78 415.93 292.94 369.09 233.56 362.2C227.59 361.5 223.32 356.11 224.01 350.15C224.02 350.14 224.02 350.13 224.02 350.12C224.83 344.22 230.16 340.01 236.09 340.58C318.51 349.31 378.25 423.2 369.53 505.62C361.37 582.65 295.92 640.82 218.46 639.88C135.58 639.4 68.78 571.83 69.26 488.95Z" id="b3H3uo6lGV"></path><path d="M218.46 606.32C154.05 606.54 101.65 554.51 101.43 490.1C101.22 432 143.82 382.61 201.32 374.27C207.11 373.61 212.41 377.58 213.39 383.32C214.19 389.11 210.22 394.47 204.46 395.4C152.6 403.4 117.04 451.93 125.04 503.79C133.04 555.65 181.57 591.21 233.44 583.21C279.67 576.07 313.83 536.35 313.96 489.57C313.42 442.75 279.38 403.06 233.19 395.4C227.43 394.47 223.46 389.11 224.26 383.32C225.19 377.55 230.53 373.54 236.33 374.27C299.94 384.39 343.31 444.15 333.2 507.77C324.22 564.18 275.71 605.8 218.59 606.07C218.56 606.12 218.49 606.27 218.46 606.32Z" id="f18TwZVEUr"></path><path d="M223.78 385.26C223.78 385.26 223.78 385.26 223.78 385.26C223.78 370.77 223.78 298.33 223.78 167.94L213.39 167.94C213.39 298.33 213.39 370.77 213.39 385.26C213.39 391.19 208.58 396 202.65 396C196.71 396 191.9 391.19 191.9 385.26C191.9 362.43 191.9 179.78 191.9 156.95C191.9 151.02 196.71 146.21 202.65 146.21C202.65 146.21 202.65 146.21 202.65 146.21C205.86 146.21 231.55 146.21 234.76 146.21C240.7 146.21 245.51 151.02 245.51 156.95C245.51 156.95 245.51 156.95 245.51 156.95C245.51 179.78 245.51 362.43 245.51 385.26C245.51 391.19 240.7 396 234.77 396C234.68 396 234.6 396 234.52 396C228.59 396 223.78 391.19 223.78 385.26Z" id="f2zl81v0tP"></path><path d="M196.37 394.19C191.4 390.86 190.08 384.13 193.41 379.16C196.75 374.19 203.48 372.87 208.44 376.2C214.52 380.23 222.41 380.23 228.49 376.2C233.55 373.11 240.16 374.7 243.26 379.76C246.14 384.48 244.97 390.62 240.56 393.95C234.09 398.39 226.43 400.79 218.59 400.83C210.69 400.85 202.96 398.54 196.37 394.19Z" id="anSaQrcTh"></path><path d="M196.13 167.7C190.19 167.7 185.38 162.89 185.38 156.95C185.38 156.91 185.38 156.87 185.38 156.83C185.38 149.86 185.38 94.13 185.38 87.17C185.32 81.23 190.07 76.37 196.01 76.3C196.05 76.3 196.09 76.3 196.13 76.3C200.63 76.3 236.66 76.3 241.16 76.3C247.1 76.3 251.91 81.11 251.91 87.05C251.91 87.09 251.91 87.13 251.91 87.17C251.91 94.15 251.91 149.97 251.91 156.95C251.91 162.89 247.1 167.7 241.16 167.7C241.16 167.7 241.16 167.7 241.16 167.7C232.16 167.7 200.63 167.7 196.13 167.7ZM206.99 146.09L230.3 146.09L230.3 97.79L206.99 97.79L206.99 146.09Z" id="a7pdQGngo"></path><path d="M189.97 132.81C184.04 132.81 179.23 127.99 179.23 122.06C179.23 116.13 184.04 111.31 189.97 111.31C195.71 111.31 241.58 111.31 247.32 111.31C253.25 111.31 258.06 116.13 258.06 122.06C258.06 127.99 253.25 132.81 247.32 132.81C247.32 132.81 195.71 132.81 189.97 132.81Z" id="cjBvzxnXr"></path><path d="M223.78 87.17C223.78 87.17 223.78 87.17 223.78 87.17C223.78 79.53 223.78 18.39 223.78 10.75C223.78 4.81 228.59 0 234.52 0C240.46 0 245.27 4.81 245.27 10.75C245.27 18.39 245.27 79.53 245.27 87.17C245.27 93.1 240.46 97.91 234.52 97.91C228.59 97.91 223.78 93.1 223.78 87.17ZM191.66 87.17C191.66 87.17 191.66 87.17 191.66 87.17C191.66 79.53 191.66 18.39 191.66 10.75C191.66 4.74 196.53 -0.12 202.53 -0.12C208.53 -0.12 213.39 4.74 213.39 10.75C213.39 18.39 213.39 79.53 213.39 87.17C213.4 93.1 208.59 97.91 202.65 97.92C202.57 97.92 202.49 97.92 202.41 97.91C196.47 97.91 191.66 93.1 191.66 87.17Z" id="inPIvjJjO"></path><path d="M341.01 616.7C335.98 613.54 334.42 606.92 337.51 601.85C340.56 596.84 347.1 595.26 352.11 598.31C352.19 598.36 352.27 598.42 352.36 598.47C373 611.37 396.84 618.23 421.17 618.27C492.12 618.35 549.69 560.9 549.77 489.95C549.84 424.64 500.9 369.67 436.02 362.2C430.13 361.51 425.9 356.18 426.59 350.29C426.59 350.23 426.6 350.18 426.61 350.12C427.36 344.19 432.73 339.95 438.68 340.58C521.1 349.32 580.83 423.21 572.1 505.63C563.94 582.61 498.58 640.75 421.17 639.88C392.81 639.81 365.03 631.78 341.01 616.7ZM335.37 372.54C335.34 368.76 337.3 365.25 340.52 363.28C359.75 350.97 381.57 343.29 404.27 340.83C410.17 340.19 415.47 344.46 416.1 350.36C416.74 356.27 412.47 361.56 406.56 362.2C387.14 364.31 368.46 370.88 351.99 381.39C350.28 382.54 348.26 383.17 346.2 383.2C340.26 383.25 335.42 378.48 335.37 372.54Z" id="cc0rtaw0R"></path><path d="M421.17 606.32C399.94 606.36 379.09 600.69 360.81 589.9C355.67 586.86 353.97 580.24 357 575.11C360.04 569.97 366.66 568.27 371.79 571.3C386.6 580.09 403.48 584.76 420.69 584.83C473.12 584.89 515.69 542.48 515.83 490.05C515.29 443.23 481.25 403.54 435.06 395.88C429.09 394.81 425.12 389.11 426.18 383.14C427.25 377.18 432.95 373.2 438.92 374.27C502.53 384.39 545.9 444.15 535.78 507.77C526.81 564.18 478.3 605.8 421.17 606.07C421.17 606.12 421.17 606.27 421.17 606.32ZM355.57 399.79C355.56 395.94 357.6 392.38 360.93 390.45C373.94 382.41 388.36 376.92 403.43 374.27C409.39 373.4 414.93 377.54 415.8 383.5C416.67 389.47 412.53 395.01 406.56 395.88C394.22 397.85 382.37 402.19 371.67 408.68C370.11 409.77 368.27 410.4 366.36 410.49C360.43 410.51 355.6 405.72 355.57 399.79Z" id="d4rRKePtAM"></path><path d="M426.49 385.26C426.49 385.26 426.49 385.26 426.49 385.26C426.49 370.77 426.49 298.33 426.49 167.94L415.86 167.94C415.86 298.33 415.86 370.77 415.86 385.26C415.86 391.19 411.05 396 405.12 396C399.18 396 394.37 391.19 394.37 385.26C394.37 362.43 394.37 179.78 394.37 156.95C394.37 151.02 399.18 146.21 405.12 146.21C405.12 146.21 405.12 146.21 405.12 146.21C408.33 146.21 434.02 146.21 437.23 146.21C443.16 146.14 448.03 150.9 448.1 156.83C448.1 156.87 448.1 156.91 448.1 156.95C448.1 179.78 448.1 362.43 448.1 385.26C448.1 391.19 443.29 396 437.35 396C437.31 396 437.27 396 437.23 396C431.3 396 426.49 391.19 426.49 385.26Z" id="d44y8vusYm"></path><path d="M399.2 394.19C394.23 390.86 392.91 384.13 396.24 379.16C399.58 374.19 406.31 372.87 411.27 376.2C417.35 380.35 425.36 380.35 431.44 376.2C436.4 372.87 443.13 374.19 446.47 379.16C449.8 384.13 448.48 390.86 443.51 394.19C436.89 398.58 429.11 400.89 421.17 400.83C413.35 400.85 405.7 398.54 399.2 394.19Z" id="a17h2KKDU4"></path><path d="M398.6 167.7C392.6 167.7 387.73 162.83 387.73 156.83C387.73 149.86 387.73 94.13 387.73 87.17C387.73 81.17 392.6 76.3 398.6 76.3C403.12 76.3 439.34 76.3 443.87 76.3C449.81 76.3 454.62 81.11 454.62 87.05C454.62 87.09 454.62 87.13 454.62 87.17C454.62 94.15 454.62 149.97 454.62 156.95C454.62 162.89 449.81 167.7 443.87 167.7C443.87 167.7 443.87 167.7 443.87 167.7C434.82 167.7 403.12 167.7 398.6 167.7ZM409.34 146.09L433.49 146.09L433.49 97.79L409.34 97.79L409.34 146.09Z" id="bURH1sZvE"></path><path d="M392.68 132.81C386.75 132.81 381.94 127.99 381.94 122.06C381.94 116.13 386.75 111.31 392.68 111.31C398.38 111.31 443.97 111.31 449.67 111.31C455.6 111.31 460.41 116.13 460.41 122.06C460.41 127.99 455.6 132.81 449.67 132.81C449.67 132.81 449.67 132.81 449.67 132.81C449.67 132.81 398.38 132.81 392.68 132.81Z" id="a4XCIJddV"></path><path d="M426.49 87.17C426.49 87.17 426.49 87.17 426.49 87.17C426.49 79.53 426.49 18.39 426.49 10.75C427.12 4.78 432.47 0.45 438.43 1.08C443.53 1.62 447.56 5.65 448.1 10.75C448.1 18.39 448.1 79.53 448.1 87.17C448.1 93.1 443.29 97.91 437.35 97.91C437.31 97.91 437.27 97.91 437.23 97.91C431.3 97.91 426.49 93.1 426.49 87.17ZM394.49 87.17C394.49 79.53 394.49 18.39 394.49 10.75C394.49 4.81 399.3 0 405.24 0C411.17 0 415.98 4.81 415.98 10.75C415.98 18.39 415.98 79.53 415.98 87.17C415.98 93.1 411.17 97.91 405.24 97.91C405.2 97.91 405.16 97.91 405.12 97.91C399.23 97.85 394.49 93.06 394.49 87.17Z" id="bbiY4oDLJ"></path></defs><g><g><g><use xlink:href="#b3H3uo6lGV" opacity="1" fill="#d5d5d5" fill-opacity="1"></use><g><use xlink:href="#b3H3uo6lGV" opacity="1" fill-opacity="0" stroke="#000000" stroke-width="1" stroke-opacity="0"></use></g></g><g><use xlink:href="#f18TwZVEUr" opacity="1" fill="#d5d5d5" fill-opacity="1"></use><g><use xlink:href="#f18TwZVEUr" opacity="1" fill-opacity="0" stroke="#000000" stroke-width="1" stroke-opacity="0"></use></g></g><g><use xlink:href="#f2zl81v0tP" opacity="1" fill="#d5d5d5" fill-opacity="1"></use><g><use xlink:href="#f2zl81v0tP" opacity="1" fill-opacity="0" stroke="#000000" stroke-width="1" stroke-opacity="0"></use></g></g><g><use xlink:href="#anSaQrcTh" opacity="1" fill="#d5d5d5" fill-opacity="1"></use><g><use xlink:href="#anSaQrcTh" opacity="1" fill-opacity="0" stroke="#000000" stroke-width="1" stroke-opacity="0"></use></g></g><g><use xlink:href="#a7pdQGngo" opacity="1" fill="#d5d5d5" fill-opacity="1"></use><g><use xlink:href="#a7pdQGngo" opacity="1" fill-opacity="0" stroke="#000000" stroke-width="1" stroke-opacity="0"></use></g></g><g><use xlink:href="#cjBvzxnXr" opacity="1" fill="#d5d5d5" fill-opacity="1"></use><g><use xlink:href="#cjBvzxnXr" opacity="1" fill-opacity="0" stroke="#000000" stroke-width="1" stroke-opacity="0"></use></g></g><g><use xlink:href="#inPIvjJjO" opacity="1" fill="#d5d5d5" fill-opacity="1"></use><g><use xlink:href="#inPIvjJjO" opacity="1" fill-opacity="0" stroke="#000000" stroke-width="1" stroke-opacity="0"></use></g></g><g><use xlink:href="#cc0rtaw0R" opacity="1" fill="#d5d5d5" fill-opacity="1"></use><g><use xlink:href="#cc0rtaw0R" opacity="1" fill-opacity="0" stroke="#000000" stroke-width="1" stroke-opacity="0"></use></g></g><g><use xlink:href="#d4rRKePtAM" opacity="1" fill="#d5d5d5" fill-opacity="1"></use><g><use xlink:href="#d4rRKePtAM" opacity="1" fill-opacity="0" stroke="#000000" stroke-width="1" stroke-opacity="0"></use></g></g><g><use xlink:href="#d44y8vusYm" opacity="1" fill="#d5d5d5" fill-opacity="1"></use><g><use xlink:href="#d44y8vusYm" opacity="1" fill-opacity="0" stroke="#000000" stroke-width="1" stroke-opacity="0"></use></g></g><g><use xlink:href="#a17h2KKDU4" opacity="1" fill="#d5d5d5" fill-opacity="1"></use><g><use xlink:href="#a17h2KKDU4" opacity="1" fill-opacity="0" stroke="#000000" stroke-width="1" stroke-opacity="0"></use></g></g><g><use xlink:href="#bURH1sZvE" opacity="1" fill="#d5d5d5" fill-opacity="1"></use><g><use xlink:href="#bURH1sZvE" opacity="1" fill-opacity="0" stroke="#000000" stroke-width="1" stroke-opacity="0"></use></g></g><g><use xlink:href="#a4XCIJddV" opacity="1" fill="#d5d5d5" fill-opacity="1"></use><g><use xlink:href="#a4XCIJddV" opacity="1" fill-opacity="0" stroke="#000000" stroke-width="1" stroke-opacity="0"></use></g></g><g><use xlink:href="#bbiY4oDLJ" opacity="1" fill="#d5d5d5" fill-opacity="1"></use><g><use xlink:href="#bbiY4oDLJ" opacity="1" fill-opacity="0" stroke="#000000" stroke-width="1" stroke-opacity="0"></use></g></g></g></g></svg>