<svg xmlns="http://www.w3.org/2000/svg" viewBox="0 0 41.66 53.01"><defs><style>.cls-1{fill:#f77b65;}</style></defs><title>crossfit</title><g id="Capa_2" data-name="Capa 2"><g id="Capa_1-2" data-name="Capa 1"><path class="cls-1" d="M12.42,53A12.43,12.43,0,0,1,11,28.23.92.92,0,0,1,12,29a.9.9,0,0,1-.79,1,10.67,10.67,0,1,0,2.46,0,.9.9,0,0,1-.79-1,.92.92,0,0,1,1-.79A12.43,12.43,0,0,1,12.42,53Z"/><path class="cls-1" d="M12.42,50.22A9.66,9.66,0,0,1,11,31a.91.91,0,0,1,1,.75.89.89,0,0,1-.74,1,7.87,7.87,0,1,0,9.07,7.8,8,8,0,0,0-6.69-7.8.89.89,0,0,1-.74-1,.9.9,0,0,1,1-.75,9.66,9.66,0,0,1-1.47,19.2Z"/><path class="cls-1" d="M13.75,32.8a.89.89,0,0,1-.89-.89v-18H12v18a.89.89,0,0,1-1.78,0V13a.89.89,0,0,1,.89-.89h2.66a.89.89,0,0,1,.89.89V31.91A.89.89,0,0,1,13.75,32.8Z"/><path class="cls-1" d="M12.43,33.2a3.33,3.33,0,0,1-1.84-.55.89.89,0,0,1,1-1.49,1.5,1.5,0,0,0,1.66,0,.89.89,0,0,1,1,1.47A3.24,3.24,0,0,1,12.43,33.2Z"/><path class="cls-1" d="M14.3,13.89H10.57a.89.89,0,0,1-.89-.9V7.22a.89.89,0,0,1,.89-.9H14.3a.89.89,0,0,1,.89.9V13A.89.89,0,0,1,14.3,13.89ZM11.47,12.1H13.4v-4H11.47Z"/><path class="cls-1" d="M14.81,11H10.06a.89.89,0,0,1,0-1.78h4.75a.89.89,0,0,1,0,1.78Z"/><path class="cls-1" d="M13.75,8.11a.89.89,0,0,1-.89-.89V.89a.89.89,0,0,1,1.78,0V7.22A.89.89,0,0,1,13.75,8.11Zm-2.66,0a.89.89,0,0,1-.89-.89V.89A.89.89,0,0,1,12,.89V7.22A.89.89,0,0,1,11.09,8.11Z"/><path class="cls-1" d="M29.21,53a12.54,12.54,0,0,1-6.64-1.92.9.9,0,0,1-.29-1.23.88.88,0,0,1,1.23-.28,10.79,10.79,0,0,0,5.7,1.64A10.64,10.64,0,0,0,30.44,30a.89.89,0,0,1-.78-1,.91.91,0,0,1,1-.79A12.43,12.43,0,0,1,29.21,53ZM23,31.74a.89.89,0,0,1-.47-1.65,12.24,12.24,0,0,1,5.28-1.86A.89.89,0,0,1,28,30a10.51,10.51,0,0,0-4.52,1.59A.89.89,0,0,1,23,31.74Z"/><path class="cls-1" d="M29.21,50.22a9.79,9.79,0,0,1-5-1.36.89.89,0,0,1,.91-1.54,8,8,0,0,0,4.05,1.12,7.87,7.87,0,0,0,7.88-7.85,8,8,0,0,0-6.69-7.8A.9.9,0,0,1,30.68,31a9.66,9.66,0,0,1-1.47,19.2ZM24.67,34a.89.89,0,0,1-.45-1.66A10,10,0,0,1,27.74,31,.9.9,0,0,1,28,32.79a8,8,0,0,0-2.89,1.06A.84.84,0,0,1,24.67,34Z"/><path class="cls-1" d="M30.54,32.8a.89.89,0,0,1-.89-.89v-18h-.88v18a.89.89,0,0,1-1.78,0V13a.89.89,0,0,1,.89-.89h2.66a.89.89,0,0,1,.9.89V31.91A.89.89,0,0,1,30.54,32.8Z"/><path class="cls-1" d="M29.21,33.2a3.26,3.26,0,0,1-1.82-.55.89.89,0,1,1,1-1.49,1.48,1.48,0,0,0,1.67,0,.89.89,0,0,1,1,1.49A3.3,3.3,0,0,1,29.21,33.2Z"/><path class="cls-1" d="M31.09,13.89H27.34a.9.9,0,0,1-.9-.9V7.22a.9.9,0,0,1,.9-.9h3.75a.89.89,0,0,1,.89.9V13A.89.89,0,0,1,31.09,13.89ZM28.23,12.1h2v-4h-2Z"/><path class="cls-1" d="M31.57,11H26.85a.89.89,0,0,1,0-1.78h4.72a.89.89,0,1,1,0,1.78Z"/><path class="cls-1" d="M30.54,8.11a.89.89,0,0,1-.89-.89V.89a.9.9,0,0,1,1.79,0V7.22A.89.89,0,0,1,30.54,8.11Zm-2.66,0A.89.89,0,0,1,27,7.22V.89a.89.89,0,0,1,1.78,0V7.22A.89.89,0,0,1,27.88,8.11Z"/></g></g></svg>