<?xml version="1.0" encoding="UTF-8" standalone="no"?>
<!DOCTYPE svg PUBLIC "-//W3C//DTD SVG 1.1//EN" "http://www.w3.org/Graphics/SVG/1.1/DTD/svg11.dtd">
<svg version="1.1" xmlns="http://www.w3.org/2000/svg" xmlns:xlink="http://www.w3.org/1999/xlink" preserveAspectRatio="xMidYMid meet" viewBox="0 0 640 640" width="640" height="640"><defs><path d="M508.4 249.3C510.63 238.9 528.54 155.72 530.78 145.33C544.51 80.33 502.94 16.51 437.94 2.79C437.73 2.74 437.52 2.7 437.31 2.66C429 0.86 420.52 -0.03 412.02 0C393.54 0 245.7 0 227.23 0C160.9 0.28 107.26 54.09 107.19 120.41C107.15 128.91 108.04 137.4 109.85 145.71C112.04 156.12 129.54 239.39 131.73 249.8C35.93 352.87 40.67 513.77 142.36 611.04C152.3 620.62 163.05 629.33 174.48 637.09C174.69 637.14 174.91 637.14 175.11 637.09C177.87 638.98 181.13 639.99 184.47 640C211.58 640 428.42 640 455.53 640C458.91 640.01 462.21 638.99 465.01 637.09C582.23 556.89 612.44 396.96 532.55 279.53C525.21 268.9 517.14 258.8 508.4 249.3ZM431.37 121.3C431.49 122.68 431.49 124.08 431.37 125.47C430.33 131.72 422.03 181.7 421 187.95C356.47 160.89 283.78 160.89 219.26 187.95C218.22 181.7 209.92 131.72 208.89 125.47C207.74 118.95 209.29 112.23 213.19 106.88C217.06 101.44 222.92 97.76 229.5 96.63C230.85 96.5 232.2 96.5 233.55 96.63C250.85 96.63 389.27 96.63 406.58 96.63C420.21 96.76 431.28 107.67 431.62 121.3C431.57 121.3 431.42 121.3 431.37 121.3ZM497.14 138.37L495.49 146.34L461.85 146.34C463.37 137.08 464.21 131.94 464.38 130.91C469.78 98.95 448.26 68.66 416.3 63.26C416.26 63.25 416.23 63.25 416.19 63.24C412.99 62.99 409.78 62.99 406.58 63.24C389.26 63.24 250.74 63.24 233.42 63.24C201.31 63.31 175.21 89.18 174.86 121.3C174.86 124.52 175.11 127.73 175.62 130.91C175.8 131.94 176.68 137.08 178.28 146.34L144.38 146.34L142.61 138.37C142.61 138.37 142.61 138.37 142.61 138.37C132.76 91.33 162.91 45.21 209.95 35.36C215.63 34.17 221.42 33.55 227.23 33.52C245.74 33.52 393.88 33.52 412.4 33.52C460.36 33.59 499.22 72.45 499.29 120.41C499.29 126.45 498.65 132.47 497.39 138.37C497.36 138.37 497.27 138.37 497.14 138.37ZM162.21 266.37C165.55 262.76 167.13 257.85 166.51 252.96C166.51 252.96 166.51 252.96 166.51 252.96C166.51 252.96 166.51 252.96 166.51 252.96C166.51 252.96 166.51 252.96 166.51 252.96L151.34 179.98L183.84 179.98C187.11 201.01 188.92 212.68 189.28 215.02C190.59 223.14 197.62 229.1 205.85 229.06C208.83 229.43 211.86 228.95 214.58 227.67C280.57 192.39 359.81 192.39 425.8 227.67C433.98 232.06 444.16 229 448.57 220.84C449.4 219.2 450 217.46 450.34 215.65C450.74 213.29 452.72 201.49 456.28 180.24L488.66 180.24C479.71 222.89 474.73 246.58 473.74 251.32C472.51 256.87 474.23 262.65 478.29 266.62C565.39 354.04 565.39 495.42 478.29 582.83C469.6 591.67 460.21 599.79 450.21 607.11C424.12 607.11 215.37 607.11 189.28 607.11C89.22 535.45 65.83 396.43 136.92 295.97C144.54 285.44 153 275.54 162.21 266.37Z" id="lCZblnpfT"></path><path d="M225.96 420.43C229.45 420.43 232.28 417.6 232.28 414.1C232.7 365.8 271.76 326.74 320.06 326.32C323.53 326.26 326.32 323.46 326.39 320C326.39 317.91 326.39 301.22 326.39 299.13C326.36 297.43 325.68 295.8 324.49 294.58C323.3 293.43 321.71 292.8 320.06 292.81C320.06 292.81 320.06 292.81 320.06 292.81C253.11 292.95 198.85 347.15 198.64 414.1C198.68 415.77 199.36 417.35 200.54 418.53C201.7 419.73 203.29 420.42 204.96 420.43C209.16 420.43 223.86 420.43 225.96 420.43Z" id="aU4R1toiv"></path><path d="M313.74 529.08C313.6 532.43 316.2 535.26 319.55 535.4C319.72 535.41 319.89 535.41 320.06 535.4C320.06 535.4 320.06 535.4 320.06 535.4C386.97 535.19 441.15 481.01 441.36 414.1C441.29 410.64 438.5 407.85 435.04 407.78C432.95 407.78 416.25 407.78 414.17 407.78C410.67 407.78 407.84 410.61 407.84 414.1C407.43 462.41 368.37 501.47 320.06 501.88C316.57 501.88 313.74 504.71 313.74 508.21C313.74 508.21 313.74 508.21 313.74 508.21C313.74 512.38 313.74 526.99 313.74 529.08Z" id="a4eXGZA70X"></path></defs><g><g><g><use xlink:href="#lCZblnpfT" opacity="1" fill="#d5d5d5" fill-opacity="1"></use><g><use xlink:href="#lCZblnpfT" opacity="1" fill-opacity="0" stroke="#000000" stroke-width="1" stroke-opacity="0"></use></g></g><g><use xlink:href="#aU4R1toiv" opacity="1" fill="#d5d5d5" fill-opacity="1"></use><g><use xlink:href="#aU4R1toiv" opacity="1" fill-opacity="0" stroke="#000000" stroke-width="1" stroke-opacity="0"></use></g></g><g><use xlink:href="#a4eXGZA70X" opacity="1" fill="#d5d5d5" fill-opacity="1"></use><g><use xlink:href="#a4eXGZA70X" opacity="1" fill-opacity="0" stroke="#000000" stroke-width="1" stroke-opacity="0"></use></g></g></g></g></svg>