<svg xmlns="http://www.w3.org/2000/svg" viewBox="0 0 28.66 28.66"><defs><style>.cls-1{fill:#fff;}</style></defs><title>instagram</title><g id="Capa_2" data-name="Capa 2"><g id="Capa_1-2" data-name="Capa 1"><path class="cls-1" d="M20.9,0H7.76A7.77,7.77,0,0,0,0,7.76V20.9a7.77,7.77,0,0,0,7.76,7.76H20.9a7.77,7.77,0,0,0,7.76-7.76V7.76A7.77,7.77,0,0,0,20.9,0M14.33,22.17a7.84,7.84,0,1,1,7.84-7.84,7.85,7.85,0,0,1-7.84,7.84m8-13.83A2.32,2.32,0,1,1,24.67,6a2.32,2.32,0,0,1-2.32,2.31"/><path class="cls-1" d="M14.33,8.17a6.16,6.16,0,1,0,6.16,6.16,6.17,6.17,0,0,0-6.16-6.16"/><path class="cls-1" d="M22.35,5.39A.64.64,0,1,0,23,6a.64.64,0,0,0-.64-.64"/></g></g></svg>