<svg xmlns="http://www.w3.org/2000/svg" viewBox="0 0 349.56 55.98"><defs><style>.cls-1{fill:#ed6b4f;}.cls-2{fill:#fff;}</style></defs><title>Logotipo</title><g id="Capa_2" data-name="Capa 2"><g id="Capa_1-2" data-name="Capa 1"><path class="cls-1" d="M9.65,26.13C3.7,26.13,0,22.07,0,16.77A9.35,9.35,0,0,1,9.58,7.26c4.39,0,8.39,2.65,8.82,7.3H12.89a3.21,3.21,0,0,0-3.38-2.47c-2.4,0-4,1.77-4,4.68s1.49,4.61,4,4.61a3.26,3.26,0,0,0,3.3-2.11h5.59C17.89,23.34,14.48,26.13,9.65,26.13Z"/><path class="cls-1" d="M39.82,14.85V25.77H34.05v-9c0-2.75-1.45-4.28-3.74-4.28-1.89,0-3.55,1.2-3.55,4.39v8.86H20.87V0h5.89V9.62h.47a7.57,7.57,0,0,1,5.59-2.36C36.84,7.26,39.82,9.87,39.82,14.85Z"/><path class="cls-1" d="M42.29,16.7c0-5.74,4.51-9.44,9.8-9.44s9.73,3.7,9.73,9.4-4.39,9.47-9.73,9.47S42.29,22.39,42.29,16.7Zm14,0a4.23,4.23,0,0,0-4.21-4.54,4.29,4.29,0,0,0-4.28,4.54,4.26,4.26,0,0,0,4.28,4.53C54.63,21.23,56.3,19.31,56.3,16.7Z"/><path class="cls-1" d="M63.71,16.7c0-5.74,4.5-9.44,9.8-9.44s9.73,3.7,9.73,9.4-4.39,9.47-9.73,9.47S63.71,22.39,63.71,16.7Zm14,0a4.23,4.23,0,0,0-4.21-4.54,4.29,4.29,0,0,0-4.28,4.54,4.26,4.26,0,0,0,4.28,4.53C76.05,21.23,77.72,19.31,77.72,16.7Z"/><path class="cls-1" d="M93.37,26.13c-4.86,0-8-2.46-8.24-6.64h5.34a2.69,2.69,0,0,0,3,2.43c1,0,2-.36,2-1.3s-1.13-1.57-3.27-2.11c-2.68-.65-6.53-1.74-6.53-5.55,0-3.45,3.08-5.7,7.37-5.7s7.15,2.47,7.44,6H95.37c-.18-1.09-1.09-1.78-2.54-1.78-1,0-1.63.4-1.63,1.24s.83,1.27,3.37,2c3.7,1,6.35,2.61,6.35,5.95C100.92,24.28,97.69,26.13,93.37,26.13Z"/><path class="cls-1" d="M121.14,19.78c-.8,4.07-4.53,6.35-8.82,6.35-5.77,0-9.51-3.88-9.51-9.43a9,9,0,0,1,9.11-9.44c4.87,0,9.73,2.87,9,11H108.19a3.79,3.79,0,0,0,4.17,3.38,3.7,3.7,0,0,0,3.56-1.89Zm-12.77-5.41h7.51c-.07-1.38-1.52-2.79-3.67-2.79A3.79,3.79,0,0,0,108.37,14.37Z"/><path class="cls-1" d="M100.16,38V48.36H94.35V38.23c0-2.18-1.23-3.27-2.72-3.27s-2.69,1.13-2.69,3.31V48.36H83.21V38.3c0-2.21-1.2-3.37-2.65-3.37s-2.73,1.12-2.73,3.34V48.36H72.06V30.21h4.58l.61,2.14h.48a6,6,0,0,1,10,.47h.47a5.72,5.72,0,0,1,5.31-3C97.47,29.85,100.16,32.35,100.16,38Z"/><path class="cls-1" d="M121.73,30.21,115.52,49.3c-1.24,3.78-3.23,6.68-8.21,6.68a7.6,7.6,0,0,1-5.11-1.71l2.21-4a4.1,4.1,0,0,0,2.62,1,3.33,3.33,0,0,0,2.9-2.32l.22-.69h-2.07l-7-18.15H107l4.6,12.52h.48L116,30.21Z"/><path class="cls-2" d="M222.56,49H209.62V6.69h.79c4.24,0,8.48,0,12.71,0a1,1,0,0,1,1.07.67c3,6.83,6.1,13.66,9.15,20.49a1.44,1.44,0,0,0,.41.55l-.32-21.65h13V49h-.82c-4,0-7.94,0-11.91,0a1,1,0,0,1-1.13-.69q-4.92-10.75-9.89-21.49a1.29,1.29,0,0,0-.41-.53C222.38,33.82,222.47,41.36,222.56,49Z"/><path class="cls-2" d="M282.14,34.44h13.32c.06,1.12.08,2.22.19,3.31a2.81,2.81,0,0,0,3.8,2.62,2.66,2.66,0,0,0,1.79-3.09,5,5,0,0,0-2.36-3.64,19.36,19.36,0,0,0-2.8-1.61c-2.5-1.22-5.05-2.36-7.56-3.57a10.3,10.3,0,0,1-6-7.52,11.68,11.68,0,0,1,1.74-9.52A11.75,11.75,0,0,1,291.14,7a29.17,29.17,0,0,1,16.71.28c4,1.29,6,4.22,6.5,8.15.21,1.51.17,3,.25,4.64H301.3c0-.93.06-1.84,0-2.75a2.53,2.53,0,0,0-3-2.49,2.71,2.71,0,0,0-1.83,4.28,5.81,5.81,0,0,0,1.86,1.73c1.52.86,3.14,1.55,4.72,2.3,1.91.91,3.88,1.71,5.71,2.74a11.2,11.2,0,0,1,6.09,9.87,16.1,16.1,0,0,1-1,6.66,10.34,10.34,0,0,1-7.43,6.36,30.72,30.72,0,0,1-16.12-.09c-4.6-1.26-7-4.5-7.7-9C282.31,38,282.29,36.24,282.14,34.44Z"/><path class="cls-2" d="M316.8,34.44h13.38c.06,1.1.07,2.2.18,3.29a2.83,2.83,0,0,0,3.86,2.63A2.68,2.68,0,0,0,336,37.3a4.92,4.92,0,0,0-2.35-3.65A20.18,20.18,0,0,0,330.75,32c-2.64-1.28-5.34-2.44-7.94-3.78a10.25,10.25,0,0,1-5.65-7.68,12,12,0,0,1,1.2-8.16c1.71-3,4.54-4.62,7.82-5.53a30.53,30.53,0,0,1,10.43-.79,21.56,21.56,0,0,1,6,1.17,9.42,9.42,0,0,1,6.46,8.22c.19,1.5.16,3,.23,4.59H336c0-.92.06-1.84,0-2.74a2.52,2.52,0,0,0-3-2.51,2.7,2.7,0,0,0-1.86,4.26,5.91,5.91,0,0,0,1.91,1.78c1.5.85,3.1,1.52,4.66,2.27,1.89.89,3.83,1.69,5.65,2.7a11.24,11.24,0,0,1,6.17,10,17.13,17.13,0,0,1-.65,5.65c-1.28,4.18-4.3,6.51-8.52,7.53a30.55,30.55,0,0,1-9.95.61,32.39,32.39,0,0,1-5-.79,10.12,10.12,0,0,1-8-8.25C317.08,38.57,317,36.53,316.8,34.44Z"/><path class="cls-2" d="M265.63,16.28v6.37h11.52V31.7H265.64v7.54h13.51v9.67H251.58V6.75H279v9.53Z"/><path class="cls-2" d="M143.44,49h-14V6.73h26.72v9.56H143.48v7.46h10.81v9H143.44Z"/><path class="cls-2" d="M184.24,16.3h-8.52V6.75h30.9v9.56h-8.44V48.94H184.24Z"/><path class="cls-2" d="M158.78,6.72h13.94v42.2H158.78Z"/></g></g></svg>