<svg xmlns="http://www.w3.org/2000/svg" viewBox="0 0 55.99 55.97"><defs><style>.cls-1{fill:#f77b65;}</style></defs><title>meditacion</title><g id="Capa_2" data-name="Capa 2"><g id="Capa_1-2" data-name="Capa 1"><path class="cls-1" d="M49.6,33.81l-.9-.5.7-.75c7.18-7.71,6.59-20,6.56-20.5a.89.89,0,0,0-.84-.84,35.59,35.59,0,0,0-8.24.72l-.79.16-.16-.79a34.87,34.87,0,0,0-2.48-7.89A.88.88,0,0,0,42.36,3,35.3,35.3,0,0,0,35,6.79l-.67.45-.45-.67A34.79,34.79,0,0,0,28.58.23a.88.88,0,0,0-1.18,0,35.45,35.45,0,0,0-5.32,6.34l-.45.67L21,6.79A35.62,35.62,0,0,0,13.63,3a.87.87,0,0,0-1.09.45,35.55,35.55,0,0,0-2.49,7.89l-.15.79-.79-.16a35.51,35.51,0,0,0-8.25-.72.9.9,0,0,0-.84.84c0,.52-.61,12.79,6.57,20.5l.7.75-.9.5A26,26,0,0,0,.23,38.6a.89.89,0,0,0,0,1.18c.26.29,6.44,7.07,14.21,7.07a15.59,15.59,0,0,0,5.63-1.12l.78-.31.27.8a24.93,24.93,0,0,0,6.28,9.54A.93.93,0,0,0,28,56a.85.85,0,0,0,.59-.22,24.37,24.37,0,0,0,6.29-9.53l.26-.8.79.31a15.59,15.59,0,0,0,5.63,1.12c7.77,0,14-6.78,14.21-7.07a.89.89,0,0,0,0-1.18A26,26,0,0,0,49.6,33.81ZM23,44.28A26.75,26.75,0,0,0,27.45,41l.54-.5.55.5A26.2,26.2,0,0,0,33,44.28l.54.31-.18.61h0a22,22,0,0,1-4.75,8l-.59.66-.59-.66a21.79,21.79,0,0,1-4.74-8l-.18-.6Zm5.56-6.92L28,38l-.58-.62C25,34.78,19.3,27.92,19.3,20S25,5.3,27.41,2.72L28,2.1l.59.62C31,5.28,35.25,10.53,36.4,16.9V17a17.7,17.7,0,0,1,.27,3C36.68,27.92,31,34.78,28.58,37.36Zm3.53.8-1.95.18,1.26-1.49c2.63-3.14,7-9.5,7-16.81a18.74,18.74,0,0,0-.15-2.34l-.06-.51.43-.27c5.19-3.21,11.44-3.84,14.7-3.93l.84,0,0,.84c-.1,3.55-.93,12.39-6.52,18C43.23,36.25,36.76,37.71,32.11,38.16Zm.11,1.78c4.06-.37,9.88-1.56,14.59-5.06l.39-.29.43.21a23.77,23.77,0,0,1,5.6,3.8l.65.59-.65.6c-2.18,2-6.6,5.29-11.68,5.29-3.91,0-7.45-2-9.73-3.7l-1.69-1.24Zm9.2-34.67.77-.35.3.79a36.37,36.37,0,0,1,1.74,6.13l.13.71-.68.21a26.5,26.5,0,0,0-4.91,2.06l-.88.48-.28-1a25.88,25.88,0,0,0-2-4.93l-.33-.64.59-.4h0A36.07,36.07,0,0,1,41.42,5.27ZM8.79,34.59l.38.29c4.72,3.51,10.54,4.69,14.6,5.06l2.09.2-1.68,1.24a23.51,23.51,0,0,1-3,1.9l-.05,0-.08,0a14.54,14.54,0,0,1-6.6,1.74c-5.06,0-9.49-3.32-11.68-5.3l-.66-.59.66-.59a23.56,23.56,0,0,1,5.59-3.81ZM17.68,17.7A18.74,18.74,0,0,0,17.53,20c0,7,3.83,13,7,16.81l1.25,1.5-1.94-.19c-4.64-.44-11.11-1.9-15.57-6.37-5.58-5.57-6.42-14.43-6.52-18l0-.85.84,0c3.26.08,9.49.71,14.69,3.93l.44.27Zm2.71-8.29a27.25,27.25,0,0,0-2,4.93l-.28,1-.87-.48a26.32,26.32,0,0,0-4.92-2.06l-.68-.21.14-.71A35.71,35.71,0,0,1,13.5,5.71l.3-.79.77.35a36.45,36.45,0,0,1,5.56,3.1l.59.4Z"/></g></g></svg>