<?xml version="1.0" encoding="UTF-8" standalone="no"?>
<!DOCTYPE svg PUBLIC "-//W3C//DTD SVG 1.1//EN" "http://www.w3.org/Graphics/SVG/1.1/DTD/svg11.dtd">
<svg version="1.1" xmlns="http://www.w3.org/2000/svg" xmlns:xlink="http://www.w3.org/1999/xlink" preserveAspectRatio="xMidYMid meet" viewBox="0 0 640 640" width="640" height="640"><defs><path d="M556.67 380.87C561.47 375.72 564.14 372.87 564.67 372.3C646.74 284.17 640 143.68 639.66 137.97C639.37 132.79 635.24 128.65 630.06 128.37C598.45 127.44 566.84 130.2 535.87 136.6C535.27 136.72 532.26 137.33 526.84 138.42C525.74 133.01 525.13 130 525.01 129.39C519.17 98.31 509.65 68.04 496.66 39.21C494.32 34.68 488.97 32.62 484.2 34.41C454.56 45.5 426.32 60.04 400.07 77.73C399.56 78.07 397.01 79.79 392.41 82.87C389.33 78.28 387.61 75.72 387.27 75.21C370.03 48.74 349.69 24.41 326.69 2.74C322.86 -0.72 317.03 -0.72 313.2 2.74C290.17 24.44 269.76 48.77 252.39 75.21C252.05 75.72 250.33 78.28 247.24 82.87C242.92 79.79 240.52 78.07 240.04 77.73C213.74 60.06 185.47 45.52 155.8 34.41C150.94 32.62 145.52 34.85 143.34 39.55C130.37 68.4 120.82 98.67 114.88 129.74C114.76 130.34 114.19 133.35 113.16 138.77C107.74 137.67 104.73 137.06 104.13 136.94C73.13 130.53 41.48 127.76 9.83 128.71C4.67 129.04 0.56 133.15 0.23 138.31C0.23 144.25 -6.74 284.51 75.33 372.64C75.86 373.21 78.53 376.07 83.33 381.21C77.16 384.64 73.73 386.55 73.04 386.93C46.97 401.43 23.24 419.77 2.63 441.34C-0.78 445.19 -0.78 450.97 2.63 454.82C5.6 458.14 76.24 535.64 165.06 535.64C187.12 535.39 208.94 531.05 229.41 522.84C230.01 522.6 232.98 521.42 238.33 519.29C240.18 524.78 241.21 527.83 241.41 528.44C256.58 569.85 281.15 607.18 313.2 637.49C315.08 639.19 317.52 640.16 320.06 640.23C322.54 640.28 324.96 639.38 326.8 637.71C359.06 607.61 383.7 570.27 398.7 528.78C398.9 528.17 399.89 525.12 401.67 519.64C407.09 521.76 410.1 522.94 410.7 523.18C431.18 531.39 453 535.73 475.06 535.98C563.87 535.98 635.08 458.48 637.49 455.17C640.89 451.32 640.89 445.53 637.49 441.68C616.89 419.86 593.11 401.28 566.96 386.58C566.96 386.58 563.53 384.68 556.67 380.87ZM262.9 506.26C281.11 495.55 298.16 482.99 313.77 468.77C314.18 468.39 316.24 466.48 319.94 463.05C323.71 466.48 325.81 468.39 326.23 468.77C341.85 483.03 358.94 495.6 377.21 506.26C377.62 506.5 379.68 507.68 383.38 509.81L381.33 516.78C381.33 516.78 381.33 516.78 381.33 516.78C369.95 550.78 351.44 581.96 327.03 608.22C326.58 608.73 324.33 611.24 320.29 615.77C316.24 611.24 313.99 608.73 313.54 608.22C289.11 581.99 270.63 550.8 259.36 516.78C259.22 516.32 258.54 514.03 257.3 509.92C260.29 507.97 262.16 506.75 262.9 506.26ZM326.46 427.16L320.06 434.48C316.08 430.23 313.87 427.86 313.43 427.39C285.77 397.67 220.61 319.26 220.61 228.73C220.61 138.2 285.77 60.7 313.31 31.21C313.76 30.73 316.01 28.37 320.06 24.12C324.1 28.37 326.35 30.73 326.8 31.21C354.35 60.47 402.93 120.48 416.07 193.29C416.07 193.41 416.07 194.32 416.07 194.43C418.08 205.76 419.11 217.23 419.16 228.73C419.27 319.26 354.35 397.67 326.69 427.16C326.66 427.16 326.58 427.16 326.46 427.16ZM366.81 436.31L344.52 438.36C353.16 428.15 357.96 422.47 358.92 421.33C388.98 385.44 438.94 312.74 438.94 229.18C438.92 220.24 438.35 211.31 437.22 202.44C437.18 202.05 436.95 200.1 436.54 196.61C439.48 194.75 441.12 193.73 441.45 193.52C500.78 156.83 572.22 149.63 609.48 148.6C610.12 148.6 613.32 148.6 619.08 148.6C619.08 154.36 619.08 157.56 619.08 158.2C617.94 198.78 608.45 299.82 544.55 363.95C494.15 414.47 420.19 431.16 367.04 436.31C367.01 436.31 366.93 436.31 366.81 436.31ZM368.07 456.65C414.47 452.42 481 438.82 534.84 398.81C535.14 398.59 536.62 397.49 539.3 395.5C542.25 396.94 543.88 397.74 544.21 397.9C567.51 409.25 589.07 423.88 608.22 441.34C608.72 441.79 611.19 444.03 615.65 448.08C611.19 452.2 608.72 454.48 608.22 454.94C583.3 477.8 532.78 515.41 474.71 515.41C430.02 515.41 389.56 492.55 363.49 473.11C362.21 472.17 355.77 467.44 344.18 458.94C356.92 457.72 364.88 456.96 368.07 456.65ZM473.23 60.35L482.03 56.35C484.09 61.77 485.23 64.78 485.46 65.38C494.13 88.11 500.78 111.56 505.35 135.45C505.45 135.99 505.94 138.7 506.83 143.57C502.17 145.01 499.58 145.81 499.06 145.97C479.61 151.91 460.81 159.8 442.94 169.52C442.27 169.88 438.91 171.71 432.88 175C430.96 168.14 429.89 164.33 429.68 163.57C424.01 144.05 416.35 125.17 406.82 107.22C406.56 106.73 405.31 104.29 403.04 99.9L409.79 95.33C409.79 95.33 409.79 95.33 409.79 95.33C429.94 81.82 451.25 70.12 473.46 60.35C473.43 60.35 473.35 60.35 473.23 60.35ZM100.48 395.5C103.08 397.49 104.53 398.59 104.82 398.81C158.77 438.94 225.3 452.42 271.71 456.65C273.3 456.81 281.26 457.57 295.6 458.94C284.07 467.44 277.67 472.17 276.39 473.11C265.53 481.21 254.06 488.47 242.1 494.83C242.06 494.83 241.87 494.83 241.53 494.83C240.98 494.83 240.68 494.83 240.61 494.83C217.4 507.35 191.54 514.17 165.17 514.72C107.33 514.72 56.7 476.77 31.66 454.14C31.16 453.69 28.65 451.44 24.12 447.39C28.65 443.35 31.16 441.1 31.66 440.65C50.76 423.14 72.28 408.47 95.56 397.1C96.22 396.89 97.85 396.35 100.48 395.5ZM202.09 202.44C200.98 211.16 200.41 219.94 200.38 228.73C200.38 308.74 244.16 377.32 280.39 420.88C281.35 422.02 286.11 427.73 294.68 438.02C281.38 436.72 273.98 435.99 272.51 435.85C219.47 430.82 145.51 414.13 94.53 363.04C30.75 299.37 21.15 198.09 20 157.29C20 156.64 20 153.4 20 147.57C25.76 147.57 28.97 147.57 29.61 147.57C66.87 148.48 138.08 155.68 197.52 192.49C197.86 192.7 199.53 193.73 202.55 195.58C202.31 199.24 202.15 201.52 202.09 202.44ZM233.07 107.68C223.63 125.67 215.97 144.54 210.21 164.03C210 164.79 208.93 168.6 207.01 175.46C201.04 172.17 197.73 170.34 197.06 169.97C179.16 160.24 160.32 152.35 140.83 146.43C140.31 146.27 137.72 145.47 133.05 144.03C134.01 139.16 134.55 136.45 134.65 135.91C139.08 111.86 145.66 88.26 154.31 65.38C154.54 64.78 155.68 61.77 157.74 56.35C163.02 58.75 165.96 60.09 166.54 60.35C188.72 70.29 209.99 82.15 230.1 95.79C230.55 96.09 232.8 97.62 236.84 100.36C234.83 104.26 233.57 106.7 233.07 107.68Z" id="cmIzXEgrh"></path></defs><g><g><g><use xlink:href="#cmIzXEgrh" opacity="1" fill="#d5d5d5" fill-opacity="1"></use><g><use xlink:href="#cmIzXEgrh" opacity="1" fill-opacity="0" stroke="#000000" stroke-width="1" stroke-opacity="0"></use></g></g></g></g></svg>