<svg xmlns="http://www.w3.org/2000/svg" viewBox="0 0 49.35 48.05"><defs><style>.cls-1{fill:#f77b65;}</style></defs><title>Mindfulness</title><g id="Capa_2" data-name="Capa 2"><g id="Capa_1-2" data-name="Capa 1"><path class="cls-1" d="M24.67,44.07l.47.65a7.94,7.94,0,0,0,13.64-1.2l.15-.33h.39a9.82,9.82,0,0,0,8.92-5.51,10,10,0,0,0-.85-10.48l-.28-.36.3-.35a8,8,0,0,0-.89-11.28L46.26,15l.06-.33A7.85,7.85,0,0,0,45,8.41a8,8,0,0,0-5.56-3.22l-.34,0-.13-.31A7.95,7.95,0,0,0,25.14,3.33L24.67,4l-.46-.65A7.86,7.86,0,0,0,17.78,0c-.3,0-.6,0-.9.05a7.86,7.86,0,0,0-6.46,4.79l-.13.31-.33,0A8,8,0,0,0,4.4,8.4,7.89,7.89,0,0,0,3,14.67l.07.33-.26.22a8,8,0,0,0-.9,11.28l.3.35L2,27.21a10,10,0,0,0-.87,10.47,9.87,9.87,0,0,0,9,5.52h.35l.16.32a7.94,7.94,0,0,0,13.64,1.2ZM25.49,7.9A5.91,5.91,0,0,1,37.11,6.38a1,1,0,0,0,1,.76A5.91,5.91,0,0,1,43.89,15a1,1,0,0,0,.42,1.21,5.91,5.91,0,0,1,1.51,8.69l-.35.42L45,25A9.8,9.8,0,0,0,39.1,23.1h-.37l-.16-.33a7.66,7.66,0,0,0-1.29-1.93L37,20.55l.18-.36a6.77,6.77,0,0,0-1.65-8.4,1,1,0,0,0-1.44.13,1.08,1.08,0,0,0-.23.75,1,1,0,0,0,.37.69,4.73,4.73,0,0,1,1.38,5.36l-.22.58L34.85,19a7.47,7.47,0,0,0-1-.4,1.05,1.05,0,0,0-.78.06,1,1,0,0,0-.51.6,1,1,0,0,0,.06.78,1,1,0,0,0,.59.51A5.91,5.91,0,0,1,37,28a1.05,1.05,0,0,0,.06.78,1,1,0,0,0,.6.51.94.94,0,0,0,.77-.06,1,1,0,0,0,.51-.59,7.81,7.81,0,0,0,.39-2.88l0-.66.66.07a8,8,0,0,1,0,15.86l-.67.07,0-.66A7.93,7.93,0,0,0,37.53,35a1,1,0,0,0-.69-.37,1,1,0,0,0-.75.23,1,1,0,0,0-.37.69,1.07,1.07,0,0,0,.23.75A5.91,5.91,0,0,1,31.4,46a5.91,5.91,0,0,1-5.91-5.9Zm-2,32.15A5.91,5.91,0,0,1,17.54,46,5.91,5.91,0,0,1,13,36.29a1.07,1.07,0,0,0,.23-.75,1,1,0,0,0-.37-.69,1,1,0,0,0-1.44.14A7.93,7.93,0,0,0,9.6,40.46l0,.66L9,41.05A7.8,7.8,0,0,1,2.39,36,7.93,7.93,0,0,1,3.88,27.8l.43-.47,0,0A7.72,7.72,0,0,1,9,25.19l.67-.07,0,.66A7.81,7.81,0,0,0,10,28.66a1,1,0,0,0,1.8.28,1,1,0,0,0,.14-.92,5.91,5.91,0,0,1,3.78-7.44,1,1,0,0,0-.64-1.95,7.47,7.47,0,0,0-1,.4l-.55.27-.23-.58a4.72,4.72,0,0,1,1.39-5.36,1,1,0,0,0-1.31-1.57,6.77,6.77,0,0,0-1.65,8.4l.19.36-.27.29a7.31,7.31,0,0,0-1.18,1.72c-.13.25-.28.54-.66.54A10,10,0,0,0,3.91,25l-.44.32-.34-.42a5.9,5.9,0,0,1,1.5-8.69A1,1,0,0,0,5.05,15a5.92,5.92,0,0,1,.73-5.38,6.06,6.06,0,0,1,5.07-2.51,1,1,0,0,0,1-.76A5.9,5.9,0,0,1,23.45,7.9Z"/></g></g></svg>