<?xml version="1.0" encoding="UTF-8" standalone="no"?>
<!DOCTYPE svg PUBLIC "-//W3C//DTD SVG 1.1//EN" "http://www.w3.org/Graphics/SVG/1.1/DTD/svg11.dtd">
<svg version="1.1" xmlns="http://www.w3.org/2000/svg" xmlns:xlink="http://www.w3.org/1999/xlink" preserveAspectRatio="xMidYMid meet" viewBox="0 0 640 640" width="640" height="640"><defs><path d="M319.94 579.96C323.59 585.01 325.62 587.82 326.03 588.39C359.02 634.71 423.31 645.52 469.64 612.53C483.94 602.35 495.39 588.68 502.92 572.82C503.05 572.54 503.7 571.11 504.87 568.54C507.9 568.54 509.59 568.54 509.93 568.54C559.04 569.02 604.05 541.22 625.6 497.09C647.97 453.35 643.7 400.74 614.58 361.18C614.34 360.86 613.13 359.31 610.95 356.51C613.28 353.78 614.58 352.27 614.84 351.97C652.05 308.39 646.89 242.91 603.32 205.7C603.31 205.69 603.31 205.69 603.3 205.68C603.07 205.5 601.95 204.59 599.93 202.96C600.39 200.39 600.65 198.96 600.71 198.68C606.79 170.41 600.56 140.9 583.59 117.5C566.44 94.11 540.3 78.97 511.48 75.74C511.19 75.74 509.72 75.74 507.07 75.74C506.06 73.32 505.5 71.98 505.39 71.72C483.57 19.12 423.24 -5.83 370.65 15.99C352.72 23.43 337.25 35.78 326.03 51.61C325.62 52.19 323.59 55.09 319.94 60.3C316.36 55.25 314.37 52.44 313.97 51.87C294.91 24.67 263.8 8.46 230.58 8.43C226.69 8.43 222.8 8.43 218.91 9.08C181.7 12.85 149.55 36.69 135.13 71.2C135.02 71.47 134.46 72.81 133.45 75.22C130.88 75.22 129.45 75.22 129.17 75.22C100.29 78.55 74.13 93.84 57.06 117.37C39.75 140.67 33.15 170.23 38.91 198.68C38.97 198.96 39.27 200.39 39.81 202.96C37.79 204.67 36.67 205.62 36.44 205.81C-7.18 242.97 -12.41 308.45 24.74 352.07C24.75 352.08 24.76 352.09 24.77 352.1C25.03 352.4 26.33 353.91 28.66 356.64C27.03 359.44 26.12 360.99 25.94 361.3C-3.21 400.79 -7.58 453.34 14.65 497.09C36.46 541.5 81.9 569.37 131.37 568.67C131.67 568.67 133.19 568.67 135.91 568.67C137.16 571.16 137.85 572.55 137.99 572.82C162.38 624.19 223.8 646.06 275.17 621.67C291.03 614.14 304.7 602.68 314.88 588.39C315.55 587.26 317.24 584.45 319.94 579.96ZM330.57 110.88C330.6 68.55 364.94 34.26 407.27 34.29C441.97 34.32 472.32 57.65 481.26 91.17C482.73 97.1 488.13 101.2 494.23 101.03C536.54 99.58 572.01 132.7 573.45 175C573.78 184.51 572.33 193.99 569.19 202.96C566.98 208.82 569.27 215.42 574.64 218.65C610.58 241.01 621.6 288.27 599.24 324.21C597.71 326.68 596.03 329.07 594.22 331.35C593.92 331.71 592.41 333.53 589.68 336.79C586.02 334.3 583.99 332.92 583.59 332.64C561.42 316.37 534.57 307.72 507.07 308C506.75 308 505.15 308 502.27 308C501.03 305.44 500.34 304.01 500.2 303.72C495.93 294.58 490.28 286.14 483.47 278.7C483.23 278.44 482.02 277.19 479.84 274.93C481.24 272.13 482.02 270.58 482.17 270.27C501.82 233.48 492.87 187.95 460.77 161.33C455.38 156.62 447.19 157.17 442.48 162.56C442.35 162.71 442.22 162.86 442.1 163.02C439.92 165.77 438.86 169.24 439.12 172.74C439.43 176.25 441.17 179.48 443.91 181.69C464.23 198.59 471.44 226.59 461.81 251.2C461.62 251.7 460.67 254.21 458.96 258.72C454.76 256.39 452.42 255.09 451.96 254.83C447.76 252.79 443.43 251.06 438.99 249.65C435.64 248.59 432.02 248.87 428.87 250.42C425.7 252 423.31 254.82 422.26 258.2C421.13 261.54 421.41 265.19 423.04 268.32C424.59 271.47 427.35 273.86 430.69 274.93C470.94 288.04 492.94 331.29 479.84 371.54C479.84 371.54 479.84 371.55 479.84 371.55C478.78 374.9 479.06 378.52 480.62 381.67C482.2 384.84 485.01 387.23 488.4 388.28C491.68 389.46 495.32 389.18 498.38 387.5C501.53 385.95 503.92 383.19 505 379.85C509 367.83 510.72 355.16 510.05 342.5C510.05 341.93 510.05 339.08 510.05 333.94C515.19 334.49 518.04 334.79 518.61 334.85C575.41 342.41 615.32 394.59 607.76 451.38C601.58 497.82 565.05 534.35 518.61 540.53C518.03 540.59 515.14 540.89 509.93 541.44C509.93 536.3 509.93 533.45 509.93 532.88C511.25 507.29 502.97 482.13 486.71 462.33C484.5 459.58 481.27 457.85 477.76 457.53C474.25 457.16 470.74 458.24 468.04 460.51C465.29 462.72 463.55 465.95 463.24 469.46C462.97 472.97 464.03 476.44 466.22 479.19C493.37 511.67 489.04 560 456.56 587.15C442.72 598.72 425.25 605.03 407.21 604.98C364.93 604.98 330.64 570.75 330.57 528.47C330.57 444.95 330.57 194.4 330.57 110.88ZM304.63 527.82C304.92 570.15 270.84 604.7 228.51 604.98C228.16 604.99 227.82 604.99 227.47 604.98C185.14 605.08 150.75 570.85 150.65 528.52C150.61 510.43 156.96 492.91 168.59 479.06C170.78 476.31 171.85 472.84 171.57 469.33C171.26 465.82 169.53 462.59 166.78 460.39C161.35 455.71 153.16 456.31 148.49 461.73C148.35 461.89 148.23 462.04 148.1 462.2C131.61 482.05 123.19 507.37 124.5 533.14C124.5 533.71 124.5 536.56 124.5 541.7C119.83 541.15 117.24 540.85 116.72 540.79C77.92 537.29 44.57 511.82 30.99 475.3C16.79 439.05 24.27 397.89 50.32 368.96C50.69 368.55 52.55 366.52 55.89 362.86C55.89 362.86 55.89 362.86 55.89 362.86C72.39 346.91 93.86 337.12 116.72 335.11C117.3 335.05 120.19 334.75 125.41 334.2C125.41 339.34 125.41 342.19 125.41 342.76C124.49 355.37 125.94 368.04 129.69 380.11C131.6 387.01 138.75 391.05 145.65 389.13C148.69 388.29 151.31 386.37 153.03 383.74C155.56 380.3 156.24 375.84 154.84 371.81C141.81 331.63 163.73 288.48 203.87 275.32C210.85 273.03 214.65 265.51 212.36 258.53C210.07 251.55 202.55 247.74 195.57 250.03C191.12 251.45 186.79 253.18 182.6 255.22C182.12 255.46 179.74 256.62 175.47 258.72C173.68 254.21 172.68 251.7 172.48 251.2C162.84 226.57 170.11 198.53 190.51 181.69C196.13 177 196.89 168.64 192.19 163.02C187.5 157.39 179.14 156.64 173.52 161.33C141.42 187.95 132.48 233.48 152.12 270.27C152.29 270.58 153.11 272.13 154.59 274.93C152.48 277.19 151.32 278.44 151.08 278.7C144.94 285.36 139.79 292.87 135.78 301C134.1 304.24 132.15 308 127.22 308C99.75 307.91 72.96 316.53 50.71 332.64C50.33 332.92 48.42 334.3 45 336.79C42.36 333.53 40.89 331.71 40.59 331.35C14.25 298.31 19.68 250.17 52.72 223.82C55.06 221.96 57.5 220.23 60.04 218.65C65.41 215.42 67.7 208.82 65.49 202.96C57.17 179.54 60.7 153.54 74.96 133.19C90.16 112.14 114.76 99.96 140.71 100.64C146.81 100.81 152.21 96.71 153.68 90.78C164.59 49.95 206.52 25.7 247.35 36.61C280.95 45.59 304.27 76.1 304.11 110.88C304.22 194.27 304.53 444.43 304.63 527.82Z" id="dXMLczXZM"></path></defs><g><g><g><use xlink:href="#dXMLczXZM" opacity="1" fill="#d5d5d5" fill-opacity="1"></use><g><use xlink:href="#dXMLczXZM" opacity="1" fill-opacity="0" stroke="#000000" stroke-width="1" stroke-opacity="0"></use></g></g></g></g></svg>