<?xml version="1.0" encoding="UTF-8" standalone="no"?>
<!DOCTYPE svg PUBLIC "-//W3C//DTD SVG 1.1//EN" "http://www.w3.org/Graphics/SVG/1.1/DTD/svg11.dtd">
<svg version="1.1" xmlns="http://www.w3.org/2000/svg" xmlns:xlink="http://www.w3.org/1999/xlink" preserveAspectRatio="xMidYMid meet" viewBox="0 0 640 640" width="640" height="640"><defs><path d="M481.15 159.3C430.09 146.53 376.35 158.66 347.12 189.68C345.36 191.47 343.44 193.09 341.38 194.53C341.01 194.79 339.13 196.11 335.76 198.48C336.15 194.35 336.36 192.05 336.4 191.59C343.18 122.12 401.65 69.18 471.45 69.31C480.12 69.31 487.15 62.28 487.15 53.61C487.15 44.94 480.12 37.91 471.45 37.91C419.26 37.75 370.04 62.15 338.57 103.77C338.29 104.14 336.89 105.97 334.36 109.26C333.52 104.97 333.05 102.59 332.96 102.11C319.87 42.63 267.24 0.19 206.33 0C198.77 0 138.21 0 130.64 0C121.95 0 114.88 7.01 114.81 15.7C114.88 87.15 172.79 145.06 244.24 145.13C248.98 145.13 272.68 145.13 315.34 145.13C314.42 147.66 313.91 149.06 313.81 149.34C308.82 163.37 305.77 178.01 304.75 192.87C304.75 193.23 304.75 195.01 304.75 198.23C301.99 196.47 300.46 195.49 300.15 195.29C297.66 193.67 295.35 191.78 293.26 189.68C258.55 155.85 208.42 143.14 161.79 156.36C108.92 168.88 66.97 209.02 52.14 261.28C38.18 312.75 35.74 366.66 44.99 419.18C54.24 474.45 76.08 526.86 108.82 572.35C141.49 616 179.78 640 218.08 640C233.07 640 247.82 636.22 260.97 629.02C297.99 608.77 342.78 608.77 379.8 629.02C392.95 636.22 407.7 640 422.69 640C460.98 640 499.27 616 531.95 572.22C564.67 526.72 586.5 474.32 595.77 419.05C604.59 368.14 602.54 315.94 589.77 265.88C576.25 212.89 534.38 171.82 481.15 159.3ZM244.24 113.6C197.8 113.48 157.81 80.83 148.38 35.36C148.33 35.1 148.08 33.83 147.62 31.53C182.85 31.53 202.42 31.53 206.33 31.53C252.8 31.64 292.85 64.28 302.32 109.77C302.37 110.03 302.63 111.3 303.09 113.6C271.7 113.6 252.09 113.6 244.24 113.6ZM394.48 601.32C347.94 576.48 292.06 576.48 245.52 601.32C237.02 606.06 227.43 608.52 217.69 608.47C190.51 608.47 159.87 588.43 133.71 553.33C104.04 511.81 84.3 464.04 76.01 413.69C67.56 365.92 69.56 316.89 81.88 269.96C93.46 228.32 127.01 196.43 169.19 187C204.73 176.87 242.98 186.07 270.03 211.25C296.04 238.85 339.5 240.13 367.1 214.12C368.09 213.19 369.04 212.23 369.97 211.25C391.29 188.66 433.79 179.85 473.36 189.8C515.64 199.4 548.91 231.98 559.39 274.05C570.56 319.78 572.13 367.33 563.99 413.69C555.7 464.04 535.96 511.81 506.29 553.33C480.13 588.43 449.49 608.47 422.31 608.47C412.57 608.54 402.98 606.08 394.48 601.32Z" id="a9sGXBhlUb"></path></defs><g><g><g><use xlink:href="#a9sGXBhlUb" opacity="1" fill="#d5d5d5" fill-opacity="1"></use><g><use xlink:href="#a9sGXBhlUb" opacity="1" fill-opacity="0" stroke="#000000" stroke-width="1" stroke-opacity="0"></use></g></g></g></g></svg>