<?xml version="1.0" encoding="UTF-8" standalone="no"?>
<!DOCTYPE svg PUBLIC "-//W3C//DTD SVG 1.1//EN" "http://www.w3.org/Graphics/SVG/1.1/DTD/svg11.dtd">
<svg version="1.1" xmlns="http://www.w3.org/2000/svg" xmlns:xlink="http://www.w3.org/1999/xlink" preserveAspectRatio="xMidYMid meet" viewBox="0 0 640 640" width="640" height="640"><defs><path d="M621.82 240.71C621.82 240.71 621.82 240.71 621.82 240.71C620.2 237.29 618.3 233.77 615.92 229.48C615.87 229.41 615.65 229.03 615.25 228.34C615.71 227.6 615.96 227.19 616.01 227.1C633.51 198.8 624.75 161.67 596.44 144.18C574.77 130.78 547.01 132.47 527.11 148.39C527.04 148.44 526.66 148.73 525.97 149.24C525.23 148.96 524.82 148.8 524.74 148.77C522.17 147.72 519.6 146.67 517.03 145.82C495.67 138.18 473.08 134.57 450.4 135.16C443.3 135.16 386.49 135.16 379.39 135.16C372.82 135.11 367.45 140.39 367.4 146.96C367.4 146.99 367.4 147.02 367.4 147.06C367.4 147.6 367.4 151.94 367.4 152.48C367.4 162.99 358.88 171.52 348.36 171.52C337.85 171.52 329.33 162.99 329.33 152.48C329.33 151.94 329.33 147.6 329.33 147.06C329.38 140.48 324.1 135.12 317.53 135.06C317.53 135.06 317.53 135.06 317.53 135.06C286.96 135.06 42.46 135.06 11.9 135.06C5.33 135.06 0 140.38 -0.01 146.95C-0.01 147.08 0 147.21 0 147.34C0.23 157.38 2.06 237.72 2.28 247.76C2.35 253.36 6.31 258.15 11.8 259.27C24.39 261.77 125.05 281.72 137.63 284.21C203.89 297.63 260.06 341.26 289.45 402.14C334.13 493.92 444.76 532.11 536.54 487.42C628.32 442.74 666.5 332.12 621.82 240.33C621.82 240.38 621.82 240.51 621.82 240.71ZM555.67 160.19C575.09 155.09 594.97 166.7 600.07 186.13C600.86 189.12 601.26 192.21 601.26 195.31C601.36 196.93 601.36 198.55 601.26 200.17C601.21 200.52 600.96 202.3 600.5 205.5C598.22 203.21 596.95 201.94 596.69 201.69C584.76 187.33 570.7 174.88 555 164.76C554.7 164.56 553.18 163.58 550.43 161.81C553.23 160.95 554.97 160.41 555.67 160.19ZM455.06 481.05C455.06 481.05 455.06 481.05 455.06 481.05C394.03 481.07 338.21 446.62 310.86 392.05C278.43 324.43 216.24 275.86 142.77 260.8C134.99 259.26 96.06 251.55 25.98 237.67L24.18 158.95L306.01 158.95C306.01 160.15 306.01 160.82 306.01 160.95C307.82 169.24 312.06 176.79 318.19 182.65C327.47 191.99 340.52 196.55 353.6 195.03C371.91 192.81 386.71 179.05 390.24 160.95C390.24 160.82 390.24 160.15 390.24 158.95C425.37 158.95 444.88 158.95 448.78 158.95C538.1 156.07 612.84 226.14 615.72 315.46C616.37 335.34 613.33 355.18 606.78 373.97C583.76 438.02 523.12 480.81 455.06 481.05Z" id="a2t54xyOA0"></path><path d="M386.44 318.29C386.44 355.08 416.27 384.91 453.06 384.91C489.86 384.91 519.69 355.08 519.69 318.29C519.69 281.49 489.86 251.66 453.06 251.66C416.27 251.66 386.44 281.49 386.44 318.29ZM405.47 318.29C405.47 292 426.78 270.7 453.06 270.7C479.35 270.7 500.65 292 500.65 318.29C500.65 344.57 479.35 365.88 453.06 365.88C426.78 365.88 405.47 344.57 405.47 318.29Z" id="b9bG1jj92"></path></defs><g><g><g><use xlink:href="#a2t54xyOA0" opacity="1" fill="#d5d5d5" fill-opacity="1"></use><g><use xlink:href="#a2t54xyOA0" opacity="1" fill-opacity="0" stroke="#000000" stroke-width="1" stroke-opacity="0"></use></g></g><g><use xlink:href="#b9bG1jj92" opacity="1" fill="#d5d5d5" fill-opacity="1"></use><g><use xlink:href="#b9bG1jj92" opacity="1" fill-opacity="0" stroke="#000000" stroke-width="1" stroke-opacity="0"></use></g></g></g></g></svg>