<svg xmlns="http://www.w3.org/2000/svg" viewBox="0 0 51.78 45.71"><defs><style>.cls-1{fill:#f77b65;}</style></defs><title>salud</title><g id="Capa_2" data-name="Capa 2"><g id="Capa_1-2" data-name="Capa 1"><path class="cls-1" d="M46.49,27.46c3.61-4.29,5.29-8.29,5.29-12.59A15.65,15.65,0,0,0,48,4.47,13,13,0,0,0,27.29,6,18.49,18.49,0,0,0,26,8.06l-.11.2-.11-.2A20.41,20.41,0,0,0,24.5,6,13,13,0,0,0,3.76,4.47,15.71,15.71,0,0,0,0,14.87c0,4.3,1.68,8.3,5.29,12.59,3.24,3.85,7.9,7.82,13.3,12.42,2,1.71,4.08,3.48,6.31,5.43l.07.06a1.42,1.42,0,0,0,1.84,0l.07-.06c2.21-1.93,4.29-3.7,6.29-5.41C38.59,35.28,43.26,31.31,46.49,27.46ZM31.38,37.75c-1.62,1.39-3.46,3-5.41,4.64l-.08.07-.08-.07c-1.89-1.64-3.68-3.16-5.41-4.64-10.6-9-17.6-15-17.6-22.88A12.86,12.86,0,0,1,5.87,6.32,10.29,10.29,0,0,1,13.7,2.8a10.39,10.39,0,0,1,8.51,4.79,18.14,18.14,0,0,1,2.35,4.67,1.4,1.4,0,0,0,2.66,0,18.16,18.16,0,0,1,2.35-4.67A10.19,10.19,0,0,1,45.92,6.32,12.86,12.86,0,0,1,49,14.87c0,7.88-7,13.85-17.61,22.88Z"/></g></g></svg>