<?xml version="1.0" encoding="UTF-8" standalone="no"?>
<!DOCTYPE svg PUBLIC "-//W3C//DTD SVG 1.1//EN" "http://www.w3.org/Graphics/SVG/1.1/DTD/svg11.dtd">
<svg version="1.1" xmlns="http://www.w3.org/2000/svg" xmlns:xlink="http://www.w3.org/1999/xlink" preserveAspectRatio="xMidYMid meet" viewBox="0 0 640 640" width="640" height="640"><defs><path d="M640 221.31C640.6 174.2 623.99 128.49 593.28 92.76C534.81 26.01 433.29 19.3 366.54 77.77C355.26 87.65 345.42 99.06 337.3 111.67C331.44 119.8 326.11 128.31 321.36 137.13C321.27 137.3 320.82 138.12 320 139.61C319.18 138.12 318.73 137.3 318.64 137.13C313.88 128.34 308.59 119.84 302.82 111.67C254.92 36.97 155.54 15.23 80.83 63.13C68.03 71.33 56.47 81.31 46.47 92.76C15.91 128.56 -0.6 174.24 0 221.31C0 274.45 20.76 323.89 65.38 376.92C105.43 424.5 163.03 473.57 229.77 530.43C254.49 551.56 280.2 573.44 307.76 597.54C307.85 597.62 308.54 598.21 308.63 598.29C315.18 603.86 324.82 603.86 331.37 598.29C331.46 598.21 332.15 597.62 332.24 597.54C359.55 573.69 385.26 551.81 409.98 530.68C476.97 473.57 534.69 424.5 574.62 376.92C619.24 323.89 640 274.45 640 221.31ZM387.86 504.1C367.83 521.28 345.09 541.18 320.99 561.45C320.92 561.51 320.59 561.8 320 562.32C319.41 561.8 319.08 561.51 319.01 561.45C295.65 541.18 273.53 522.39 252.14 504.1C121.13 392.86 34.61 318.7 34.61 221.31C33.98 182.64 47.47 145.06 72.55 115.63C96.93 87.72 132.27 71.83 169.33 72.12C212.06 73.12 251.49 95.32 274.52 131.32C286.93 149.06 296.72 168.5 303.56 189.05C306.55 198.12 316.32 203.07 325.4 200.08C330.63 198.36 334.72 194.27 336.44 189.05C343.29 168.51 353.07 149.06 365.48 131.32C402.32 72.32 480.02 54.36 539.02 91.2C549.71 97.87 559.33 106.1 567.57 115.63C592.7 145.05 606.23 182.62 605.64 221.31C605.64 318.7 519.12 392.49 387.98 504.1C387.96 504.1 387.88 504.1 387.86 504.1Z" id="aslgh5mwi"></path></defs><g><g><g><use xlink:href="#aslgh5mwi" opacity="1" fill="#d5d5d5" fill-opacity="1"></use><g><use xlink:href="#aslgh5mwi" opacity="1" fill-opacity="0" stroke="#000000" stroke-width="1" stroke-opacity="0"></use></g></g></g></g></svg>