<?xml version="1.0" encoding="UTF-8" standalone="no"?>
<!DOCTYPE svg PUBLIC "-//W3C//DTD SVG 1.1//EN" "http://www.w3.org/Graphics/SVG/1.1/DTD/svg11.dtd">
<svg version="1.1" xmlns="http://www.w3.org/2000/svg" xmlns:xlink="http://www.w3.org/1999/xlink" preserveAspectRatio="xMidYMid meet" viewBox="0 0 640 640" width="640" height="640"><defs><path d="M549.51 117.13C521.51 116.37 495.35 131.01 481.36 155.27C481.21 155.46 480.03 157.01 479.88 157.21C478.87 158.41 477.85 159.79 476.75 160.9C476.68 160.97 476.34 161.34 475.73 162.01C383.15 161.57 331.72 161.32 321.43 161.27C317 160.87 312.65 162.66 309.8 166.07C279.21 199.73 34.55 468.99 3.97 502.65C0.35 506.43 -0.83 511.93 0.92 516.87C3.38 521.02 8.03 523.36 12.84 522.87C51.42 522.87 360.13 522.87 398.72 522.87C440.34 522.41 480.68 508.37 513.59 482.89C532.5 468.15 547.69 449.17 557.91 427.48C560.55 421.98 562.81 416.31 564.65 410.49C572.04 389.87 631.14 224.92 638.52 204.3C639.54 201.33 640.01 198.2 639.91 195.07C637.14 146.77 590.97 117.13 549.51 117.13C549.51 117.13 549.51 117.13 549.51 117.13ZM545.91 397.66C544.16 404.51 541.78 411.19 538.8 417.6C529.97 436.37 516.72 452.72 500.2 465.25C470.74 487.11 435.29 499.42 398.63 500.52C374.45 500.52 253.54 500.52 35.92 500.52L324.02 183.71L456.8 183.71C409.04 240.83 382.51 272.56 377.2 278.91C361.88 299.24 355.69 325.03 360.12 350.1C371.57 400.7 397.06 423.33 443.23 423.33C443.34 423.33 444.22 423.33 444.33 423.33C481 422.02 509.8 391.49 508.97 354.81C508.97 354.71 508.97 353.9 508.97 353.8C508.62 334.95 500.74 317.03 487.09 304.03C475.99 294.75 461.14 291.32 447.1 294.79C433.72 297.72 422.48 306.74 416.72 319.17C410.99 333.8 413.23 350.35 422.63 362.94C425.31 368.33 431.85 370.52 437.24 367.84C440.57 366.19 442.83 362.94 443.23 359.24C443.75 356.15 442.91 352.99 440.92 350.56C435.34 344.49 433.83 335.72 437.04 328.13C440.15 322.08 445.81 317.74 452.46 316.31C459.64 314.44 467.28 316.23 472.87 321.11C481.86 330.3 486.84 342.69 486.72 355.55C488.2 379.22 470.21 399.61 446.55 401.09C445.44 401.16 444.33 401.18 443.23 401.17C414.14 402.55 391.24 382.05 382.01 345.76C379.35 325.05 385.44 304.18 398.81 288.14C414.22 272.82 434.58 263.49 456.25 261.83C478.48 259.42 500.75 266.08 518.02 280.29C537.6 296.55 548.49 321.75 550.62 355C550.92 368.9 549.33 382.79 545.91 396.27C545.91 396.27 545.91 397.52 545.91 397.66ZM569.82 329.51C568.05 323.36 567.06 319.94 566.87 319.26C561.11 297.75 549.05 278.46 532.24 263.86C513.15 248.22 489.14 239.84 464.46 240.22C461.05 240.04 457.63 240.04 454.21 240.22C452.37 240.22 450.52 240.68 448.67 240.96C447.92 241.07 444.17 241.62 437.41 242.62L443.32 235.6C453.51 223.52 459.18 216.81 460.31 215.47C473.88 199.59 488.01 183.06 500.38 167.09C510.75 149.08 530.32 138.38 551.08 139.39C581.36 139.39 615.71 161.64 617.65 195.99C617.65 196 601.71 240.51 569.82 329.51Z" id="a2pRgPuSmE"></path></defs><g><g><g><use xlink:href="#a2pRgPuSmE" opacity="1" fill="#d5d5d5" fill-opacity="1"></use><g><use xlink:href="#a2pRgPuSmE" opacity="1" fill-opacity="0" stroke="#000000" stroke-width="1" stroke-opacity="0"></use></g></g></g></g></svg>