<svg width="95" height="31" viewBox="0 0 95 31" fill="none" xmlns="http://www.w3.org/2000/svg">
<mask id="mask0" mask-type="alpha" maskUnits="userSpaceOnUse" x="0" y="0" width="27" height="31">
<path fill-rule="evenodd" clip-rule="evenodd" d="M0 0.177002H26.9679V30.3244H0V0.177002Z" fill="white"/>
</mask>
<g mask="url(#mask0)">
<path fill-rule="evenodd" clip-rule="evenodd" d="M13.4612 18.7054H20.3652V22.0252C18.7723 23.1984 17.256 23.6833 15.239 23.6833C11.213 23.6833 6.91134 21.579 6.91134 15.6724C6.91134 10.3305 10.2579 6.74129 15.239 6.74129C17.4604 6.74129 19.8927 7.69001 21.4351 9.1582L22.1274 9.81739L26.6326 5.22942L25.9469 4.55715C23.0656 1.73256 19.2629 0.177002 15.239 0.177002C10.511 0.177002 6.55696 1.82312 3.80374 4.93794C1.35081 7.71283 0 11.525 0 15.6724C0 19.6575 1.27129 23.2567 3.58011 25.807C6.25541 28.7623 10.287 30.3244 15.239 30.3244C19.9198 30.3244 23.6781 28.6362 26.7292 25.1635L26.9679 24.8915V12.256H13.4612V18.7054Z" fill="white"/>
</g>
<path fill-rule="evenodd" clip-rule="evenodd" d="M37.8021 17.9134L44.2586 10.6723V9.27075H38.1215L33.784 14.4542V14.444L28.0034 21.9145V27.5412H33.784V21.4614L39.0361 27.5412H45.1984V26.0681L37.8021 17.9134Z" fill="white"/>
<path fill-rule="evenodd" clip-rule="evenodd" d="M34.1251 7.81369H31.5528V5.25635H28.0919V7.81369H25.5198V11.2545H28.0919V13.8116H31.5528V11.2545H34.1251V7.81369Z" fill="#00A79D"/>
<path fill-rule="evenodd" clip-rule="evenodd" d="M56.6895 14.5392C55.9443 13.8103 54.9057 13.446 53.9406 13.446C51.4357 13.446 50.1529 15.2681 50.1651 17.2359C50.1651 19.2402 51.448 20.965 53.9406 20.965C54.8568 20.965 55.81 20.6491 56.5429 19.9811V17.6003H53.5618V17.0293H57.1661V20.2119C56.2741 21.0986 55.2112 21.5844 53.9406 21.5844C51.0326 21.5844 49.5298 19.5681 49.5298 17.248C49.5177 14.5879 51.338 12.8508 53.9406 12.8508C55.0644 12.8508 56.2008 13.2758 57.0683 14.1264L56.6895 14.5392Z" fill="#E8E8E5"/>
<path fill-rule="evenodd" clip-rule="evenodd" d="M63.7021 21.475V20.394C63.238 21.2199 62.3947 21.56 61.5518 21.5721C59.9391 21.5721 58.8274 20.5882 58.8274 18.9242V15.4622H59.4259V18.912C59.4259 20.2724 60.2689 21.0011 61.5763 20.9889C62.8226 20.9769 63.69 20.0416 63.69 18.8027V15.4622H64.2887V21.475H63.7021Z" fill="#E8E8E5"/>
<path fill-rule="evenodd" clip-rule="evenodd" d="M66.1212 18.4747C66.1212 20.1389 67.2331 20.9891 68.5893 20.9891C70.0064 20.9891 71.0573 19.9567 71.0573 18.4627C71.0573 16.9685 69.9821 15.9482 68.5893 15.9482C67.2331 15.9482 66.1212 16.7863 66.1212 18.4747V18.4747ZM71.6559 12.9722V21.4751H71.0694V20.1511C70.5686 21.0619 69.5791 21.5722 68.5526 21.5722C66.8664 21.5722 65.5347 20.4668 65.5347 18.4747C65.5347 16.4949 66.8787 15.3772 68.5647 15.3772C69.6033 15.3772 70.5807 15.8146 71.0694 16.7863V12.9722H71.6559Z" fill="#E8E8E5"/>
<path fill-rule="evenodd" clip-rule="evenodd" d="M79.4997 21.4751H78.6687L74.1603 17.2844V21.4629H73.5005V12.9722H74.1603V16.8472L78.3145 12.9722H79.1087V13.033L74.8079 17.0416L79.4997 21.4265V21.4751Z" fill="#E8E8E5"/>
<path fill-rule="evenodd" clip-rule="evenodd" d="M85.0463 18.2317C85.0342 16.7499 84.0568 15.9239 82.6028 15.9239C81.3566 15.9239 80.2815 16.7619 80.147 18.2317H85.0463ZM79.5361 18.4747C79.5361 16.6768 80.9046 15.3772 82.6028 15.3772C84.3012 15.3772 85.8161 16.4098 85.5839 18.7541H80.147C80.2691 20.1631 81.3566 20.9768 82.6028 20.9768C83.397 20.9768 84.3256 20.661 84.7775 20.066L85.2053 20.4059C84.6188 21.1714 83.5679 21.56 82.6028 21.56C80.9046 21.56 79.5361 20.3817 79.5361 18.4747V18.4747Z" fill="#E8E8E5"/>
<path fill-rule="evenodd" clip-rule="evenodd" d="M87.6975 15.4745L87.722 16.5433C88.1008 15.7295 88.956 15.4137 89.7256 15.4137C90.1776 15.4016 90.6176 15.523 91.0209 15.766L90.7521 16.2518C90.4344 16.0575 90.0801 15.9726 89.7256 15.9726C88.6016 15.9846 87.7341 16.8834 87.7341 17.9767V21.4751H87.1355V15.4745H87.6975Z" fill="#E8E8E5"/>
<mask id="mask1" mask-type="alpha" maskUnits="userSpaceOnUse" x="91" y="11" width="5" height="4">
<path fill-rule="evenodd" clip-rule="evenodd" d="M91.7778 11.2009H95V14.4401H91.7778V11.2009Z" fill="white"/>
</mask>
<g mask="url(#mask1)">
<path fill-rule="evenodd" clip-rule="evenodd" d="M93.005 12.1505H93.554C94.0359 12.1505 94.027 12.8205 93.5407 12.8205H93.005V12.1505ZM93.554 11.9464H92.7953V13.646H93.005V13.0069H93.3756L93.9333 13.646H94.1653V13.6102L93.63 13.0069C94.3083 12.9226 94.2815 11.9464 93.554 11.9464V11.9464ZM93.3889 14.2404C94.2726 14.2404 94.7767 13.6102 94.7767 12.8205C94.7767 12.0264 94.2726 11.3962 93.3889 11.3962C92.5051 11.3962 92.0054 12.0264 92.0054 12.8205C92.0054 13.6102 92.5051 14.2404 93.3889 14.2404V14.2404ZM95 12.8205C95 13.699 94.4245 14.4401 93.3889 14.4401C92.3578 14.4401 91.7778 13.699 91.7778 12.8205C91.7778 11.9376 92.3578 11.2009 93.3889 11.2009C94.4245 11.2009 95 11.9376 95 12.8205V12.8205Z" fill="#E8E8E5"/>
</g>
</svg>
